<mxfile host="Electron" agent="Mozilla/5.0 (Macintosh; Intel Mac OS X 10_15_7) AppleWebKit/537.36 (KHTML, like Gecko) draw.io/25.0.2 Chrome/128.0.6613.186 Electron/32.2.5 Safari/537.36" version="25.0.2">
  <diagram name="Page-1" id="5gX3Xr60CRV8U2zrEgsa">
    <mxGraphModel dx="1714" dy="1148" grid="1" gridSize="3.937" guides="1" tooltips="1" connect="1" arrows="1" fold="1" page="1" pageScale="1" pageWidth="827" pageHeight="1169" background="none" math="0" shadow="0">
      <root>
        <mxCell id="0" />
        <mxCell id="1" parent="0" />
        <mxCell id="ql_3GnGEkS4ERAGS1-E4-127" value="" style="group" parent="1" vertex="1" connectable="0">
          <mxGeometry x="190.857" y="318.02700000000004" width="95" height="51" as="geometry" />
        </mxCell>
        <mxCell id="ql_3GnGEkS4ERAGS1-E4-128" value="" style="endArrow=none;html=1;rounded=1;shadow=0;curved=0;strokeWidth=1.1811;" parent="ql_3GnGEkS4ERAGS1-E4-127" edge="1">
          <mxGeometry width="50" height="50" relative="1" as="geometry">
            <mxPoint x="95" as="sourcePoint" />
            <mxPoint as="targetPoint" />
            <Array as="points">
              <mxPoint x="95" y="51" />
              <mxPoint x="48" y="51" />
              <mxPoint y="51" />
            </Array>
          </mxGeometry>
        </mxCell>
        <mxCell id="ql_3GnGEkS4ERAGS1-E4-129" value="" style="endArrow=none;html=1;rounded=1;shadow=0;curved=0;strokeWidth=1.1811;" parent="ql_3GnGEkS4ERAGS1-E4-127" edge="1">
          <mxGeometry width="50" height="50" relative="1" as="geometry">
            <mxPoint x="91" as="sourcePoint" />
            <mxPoint x="4" as="targetPoint" />
            <Array as="points">
              <mxPoint x="91" y="47" />
              <mxPoint x="4" y="47" />
            </Array>
          </mxGeometry>
        </mxCell>
        <mxCell id="ql_3GnGEkS4ERAGS1-E4-130" value="" style="group" parent="1" vertex="1" connectable="0">
          <mxGeometry x="198.728" y="329.83400000000006" width="77.70599999999999" height="22.744000000000028" as="geometry" />
        </mxCell>
        <mxCell id="ql_3GnGEkS4ERAGS1-E4-131" value="" style="group" parent="ql_3GnGEkS4ERAGS1-E4-130" vertex="1" connectable="0">
          <mxGeometry x="0.12600000000000477" width="77.57999999999998" height="8.870000000000005" as="geometry" />
        </mxCell>
        <mxCell id="ql_3GnGEkS4ERAGS1-E4-132" value="" style="pointerEvents=1;verticalLabelPosition=bottom;shadow=0;dashed=0;align=center;html=1;verticalAlign=top;shape=mxgraph.electrical.waveforms.sine_wave;fillStyle=dots;strokeColor=default;fontFamily=Helvetica;fontSize=12;fontColor=default;fillColor=#FF0000;" parent="ql_3GnGEkS4ERAGS1-E4-131" vertex="1">
          <mxGeometry y="0.47999999999996135" width="19.68" height="7.87" as="geometry" />
        </mxCell>
        <mxCell id="ql_3GnGEkS4ERAGS1-E4-133" value="" style="pointerEvents=1;verticalLabelPosition=bottom;shadow=0;dashed=0;align=center;html=1;verticalAlign=top;shape=mxgraph.electrical.waveforms.sine_wave;fillStyle=dots;strokeColor=default;fontFamily=Helvetica;fontSize=12;fontColor=default;fillColor=#FF0000;" parent="ql_3GnGEkS4ERAGS1-E4-131" vertex="1">
          <mxGeometry x="39.359999999999985" width="19.78" height="8.87" as="geometry" />
        </mxCell>
        <mxCell id="ql_3GnGEkS4ERAGS1-E4-134" value="" style="pointerEvents=1;verticalLabelPosition=bottom;shadow=0;dashed=0;align=center;html=1;verticalAlign=top;shape=mxgraph.electrical.waveforms.sine_wave;fillStyle=dots;strokeColor=default;fontFamily=Helvetica;fontSize=12;fontColor=default;fillColor=#FF0000;" parent="ql_3GnGEkS4ERAGS1-E4-131" vertex="1">
          <mxGeometry x="19.679999999999993" y="0.47999999999996135" width="19.74" height="7.9" as="geometry" />
        </mxCell>
        <mxCell id="ql_3GnGEkS4ERAGS1-E4-135" value="" style="pointerEvents=1;verticalLabelPosition=bottom;shadow=0;dashed=0;align=center;html=1;verticalAlign=top;shape=mxgraph.electrical.waveforms.sine_wave;fillStyle=dots;strokeColor=default;fontFamily=Helvetica;fontSize=12;fontColor=default;fillColor=#FF0000;" parent="ql_3GnGEkS4ERAGS1-E4-131" vertex="1">
          <mxGeometry x="59.04999999999998" y="1" width="18.53" height="6.9" as="geometry" />
        </mxCell>
        <mxCell id="ql_3GnGEkS4ERAGS1-E4-136" value="" style="group" parent="ql_3GnGEkS4ERAGS1-E4-130" vertex="1" connectable="0">
          <mxGeometry x="0.06300000000000239" y="6.937000000000012" width="77.57999999999998" height="8.870000000000005" as="geometry" />
        </mxCell>
        <mxCell id="ql_3GnGEkS4ERAGS1-E4-137" value="" style="pointerEvents=1;verticalLabelPosition=bottom;shadow=0;dashed=0;align=center;html=1;verticalAlign=top;shape=mxgraph.electrical.waveforms.sine_wave;fillStyle=dots;strokeColor=default;fontFamily=Helvetica;fontSize=12;fontColor=default;fillColor=#FF0000;" parent="ql_3GnGEkS4ERAGS1-E4-136" vertex="1">
          <mxGeometry y="0.47999999999996135" width="19.68" height="7.87" as="geometry" />
        </mxCell>
        <mxCell id="ql_3GnGEkS4ERAGS1-E4-138" value="" style="pointerEvents=1;verticalLabelPosition=bottom;shadow=0;dashed=0;align=center;html=1;verticalAlign=top;shape=mxgraph.electrical.waveforms.sine_wave;fillStyle=dots;strokeColor=default;fontFamily=Helvetica;fontSize=12;fontColor=default;fillColor=#FF0000;" parent="ql_3GnGEkS4ERAGS1-E4-136" vertex="1">
          <mxGeometry x="39.359999999999985" width="19.78" height="8.87" as="geometry" />
        </mxCell>
        <mxCell id="ql_3GnGEkS4ERAGS1-E4-139" value="" style="pointerEvents=1;verticalLabelPosition=bottom;shadow=0;dashed=0;align=center;html=1;verticalAlign=top;shape=mxgraph.electrical.waveforms.sine_wave;fillStyle=dots;strokeColor=default;fontFamily=Helvetica;fontSize=12;fontColor=default;fillColor=#FF0000;" parent="ql_3GnGEkS4ERAGS1-E4-136" vertex="1">
          <mxGeometry x="19.679999999999993" y="0.47999999999996135" width="19.74" height="7.9" as="geometry" />
        </mxCell>
        <mxCell id="ql_3GnGEkS4ERAGS1-E4-140" value="" style="pointerEvents=1;verticalLabelPosition=bottom;shadow=0;dashed=0;align=center;html=1;verticalAlign=top;shape=mxgraph.electrical.waveforms.sine_wave;fillStyle=dots;strokeColor=default;fontFamily=Helvetica;fontSize=12;fontColor=default;fillColor=#FF0000;" parent="ql_3GnGEkS4ERAGS1-E4-136" vertex="1">
          <mxGeometry x="59.04999999999998" y="1" width="18.53" height="6.9" as="geometry" />
        </mxCell>
        <mxCell id="ql_3GnGEkS4ERAGS1-E4-141" value="" style="group" parent="ql_3GnGEkS4ERAGS1-E4-130" vertex="1" connectable="0">
          <mxGeometry y="13.874000000000024" width="77.57999999999998" height="8.870000000000005" as="geometry" />
        </mxCell>
        <mxCell id="ql_3GnGEkS4ERAGS1-E4-142" value="" style="pointerEvents=1;verticalLabelPosition=bottom;shadow=0;dashed=0;align=center;html=1;verticalAlign=top;shape=mxgraph.electrical.waveforms.sine_wave;fillStyle=dots;strokeColor=default;fontFamily=Helvetica;fontSize=12;fontColor=default;fillColor=#FF0000;" parent="ql_3GnGEkS4ERAGS1-E4-141" vertex="1">
          <mxGeometry y="0.47999999999996135" width="19.68" height="7.87" as="geometry" />
        </mxCell>
        <mxCell id="ql_3GnGEkS4ERAGS1-E4-143" value="" style="pointerEvents=1;verticalLabelPosition=bottom;shadow=0;dashed=0;align=center;html=1;verticalAlign=top;shape=mxgraph.electrical.waveforms.sine_wave;fillStyle=dots;strokeColor=default;fontFamily=Helvetica;fontSize=12;fontColor=default;fillColor=#FF0000;" parent="ql_3GnGEkS4ERAGS1-E4-141" vertex="1">
          <mxGeometry x="39.359999999999985" width="19.78" height="8.87" as="geometry" />
        </mxCell>
        <mxCell id="ql_3GnGEkS4ERAGS1-E4-144" value="" style="pointerEvents=1;verticalLabelPosition=bottom;shadow=0;dashed=0;align=center;html=1;verticalAlign=top;shape=mxgraph.electrical.waveforms.sine_wave;fillStyle=dots;strokeColor=default;fontFamily=Helvetica;fontSize=12;fontColor=default;fillColor=#FF0000;" parent="ql_3GnGEkS4ERAGS1-E4-141" vertex="1">
          <mxGeometry x="19.679999999999993" y="0.47999999999996135" width="19.74" height="7.9" as="geometry" />
        </mxCell>
        <mxCell id="ql_3GnGEkS4ERAGS1-E4-145" value="" style="pointerEvents=1;verticalLabelPosition=bottom;shadow=0;dashed=0;align=center;html=1;verticalAlign=top;shape=mxgraph.electrical.waveforms.sine_wave;fillStyle=dots;strokeColor=default;fontFamily=Helvetica;fontSize=12;fontColor=default;fillColor=#FF0000;" parent="ql_3GnGEkS4ERAGS1-E4-141" vertex="1">
          <mxGeometry x="59.04999999999998" y="1" width="18.53" height="6.9" as="geometry" />
        </mxCell>
        <mxCell id="ql_3GnGEkS4ERAGS1-E4-147" value="" style="endArrow=classic;html=1;rounded=1;fontFamily=Helvetica;fontSize=12;fontColor=default;curved=0;" parent="1" edge="1">
          <mxGeometry width="50" height="50" relative="1" as="geometry">
            <mxPoint x="159.68" y="255.32999999999998" as="sourcePoint" />
            <mxPoint x="214.68" y="314.33000000000004" as="targetPoint" />
            <Array as="points">
              <mxPoint x="198.68" y="259.33" />
              <mxPoint x="210.68" y="263.33" />
              <mxPoint x="214.68" y="274.33" />
            </Array>
          </mxGeometry>
        </mxCell>
        <mxCell id="ql_3GnGEkS4ERAGS1-E4-150" value="Farina" style="text;html=1;align=center;verticalAlign=middle;resizable=0;points=[];autosize=1;strokeColor=none;fillColor=none;fontFamily=Helvetica;fontSize=12;fontColor=default;" parent="1" vertex="1">
          <mxGeometry x="111.987" y="239.28" width="55.117999999999995" height="27.558999999999997" as="geometry" />
        </mxCell>
        <mxCell id="ql_3GnGEkS4ERAGS1-E4-151" value="" style="endArrow=classic;html=1;rounded=1;fontFamily=Helvetica;fontSize=12;fontColor=default;curved=0;" parent="1" edge="1">
          <mxGeometry width="50" height="50" relative="1" as="geometry">
            <mxPoint x="264.68" y="228.33" as="sourcePoint" />
            <mxPoint x="232.72700000000003" y="302.407" as="targetPoint" />
            <Array as="points">
              <mxPoint x="232.72700000000003" y="250.40699999999998" />
            </Array>
          </mxGeometry>
        </mxCell>
        <mxCell id="ql_3GnGEkS4ERAGS1-E4-152" value="" style="endArrow=classic;html=1;rounded=1;fontFamily=Helvetica;fontSize=12;fontColor=default;curved=0;" parent="1" edge="1">
          <mxGeometry width="50" height="50" relative="1" as="geometry">
            <mxPoint x="304.68" y="239.33" as="sourcePoint" />
            <mxPoint x="249.91000000000003" y="310.85" as="targetPoint" />
            <Array as="points">
              <mxPoint x="249.68" y="263.33" />
              <mxPoint x="249.91000000000003" y="286.84999999999997" />
            </Array>
          </mxGeometry>
        </mxCell>
        <mxCell id="ql_3GnGEkS4ERAGS1-E4-153" value="" style="endArrow=classic;html=1;rounded=1;fontFamily=Helvetica;fontSize=12;fontColor=default;curved=0;" parent="1" edge="1">
          <mxGeometry width="50" height="50" relative="1" as="geometry">
            <mxPoint x="328.68" y="270.33" as="sourcePoint" />
            <mxPoint x="269.59100000000007" y="326.361" as="targetPoint" />
            <Array as="points">
              <mxPoint x="269.59100000000007" y="274.361" />
            </Array>
          </mxGeometry>
        </mxCell>
        <mxCell id="ql_3GnGEkS4ERAGS1-E4-154" value="Zucchero" style="text;html=1;align=center;verticalAlign=middle;resizable=0;points=[];autosize=1;strokeColor=none;fillColor=none;fontFamily=Helvetica;fontSize=12;fontColor=default;" parent="1" vertex="1">
          <mxGeometry x="234.034" y="203.847" width="70.866" height="27.558999999999997" as="geometry" />
        </mxCell>
        <mxCell id="ql_3GnGEkS4ERAGS1-E4-155" value="Acqua" style="text;html=1;align=center;verticalAlign=middle;resizable=0;points=[];autosize=1;strokeColor=none;fillColor=none;fontFamily=Helvetica;fontSize=12;fontColor=default;" parent="1" vertex="1">
          <mxGeometry x="301.091" y="223.53400000000002" width="55.117999999999995" height="27.558999999999997" as="geometry" />
        </mxCell>
        <mxCell id="ql_3GnGEkS4ERAGS1-E4-156" value="" style="group" parent="1" vertex="1" connectable="0">
          <mxGeometry x="320.77000000000004" y="255.02999999999997" width="56.69" height="40.48" as="geometry" />
        </mxCell>
        <mxCell id="ql_3GnGEkS4ERAGS1-E4-157" value="" style="ellipse;whiteSpace=wrap;html=1;aspect=fixed;fillStyle=solid;fillColor=#E6E6E6;strokeColor=default;" parent="ql_3GnGEkS4ERAGS1-E4-156" vertex="1">
          <mxGeometry x="11.868462133790194" y="0.7301050544077592" width="27.680265785176122" height="27.680265785176122" as="geometry" />
        </mxCell>
        <mxCell id="ql_3GnGEkS4ERAGS1-E4-158" value="" style="verticalLabelPosition=bottom;verticalAlign=top;html=1;shape=mxgraph.basic.arc;startAngle=0.08689626022677688;endAngle=0.2050773360672707;" parent="ql_3GnGEkS4ERAGS1-E4-156" vertex="1">
          <mxGeometry width="37.49909047011119" height="34.60213527998836" as="geometry" />
        </mxCell>
        <mxCell id="ql_3GnGEkS4ERAGS1-E4-159" value="" style="verticalLabelPosition=bottom;verticalAlign=top;html=1;shape=mxgraph.basic.arc;startAngle=0.9043001817170615;endAngle=0.9910681000229217;" parent="ql_3GnGEkS4ERAGS1-E4-156" vertex="1">
          <mxGeometry x="19.190909529888803" y="5.877864720011631" width="37.49909047011119" height="34.60213527998836" as="geometry" />
        </mxCell>
        <mxCell id="ql_3GnGEkS4ERAGS1-E4-160" value="Pasta Madre" style="text;html=1;align=center;verticalAlign=middle;resizable=0;points=[];autosize=1;strokeColor=none;fillColor=none;fontFamily=Helvetica;fontSize=12;fontColor=default;" parent="1" vertex="1">
          <mxGeometry x="352.271" y="255.034" width="90.551" height="27.558999999999997" as="geometry" />
        </mxCell>
        <mxCell id="ql_3GnGEkS4ERAGS1-E4-182" value="" style="group" parent="1" vertex="1" connectable="0">
          <mxGeometry x="253.48999999999995" y="408.57000000000005" width="102.71700000000007" height="86.54999999999995" as="geometry" />
        </mxCell>
        <mxCell id="ql_3GnGEkS4ERAGS1-E4-162" value="" style="endArrow=none;html=1;rounded=0;fontFamily=Helvetica;fontSize=12;fontColor=default;curved=0;strokeWidth=1.1810999999999998;" parent="ql_3GnGEkS4ERAGS1-E4-182" edge="1">
          <mxGeometry width="50" height="50" relative="1" as="geometry">
            <mxPoint x="10.810000000000002" y="81.93999999999994" as="sourcePoint" />
            <mxPoint x="10.810000000000002" y="3.9399999999999977" as="targetPoint" />
          </mxGeometry>
        </mxCell>
        <mxCell id="ql_3GnGEkS4ERAGS1-E4-164" value="" style="endArrow=none;html=1;rounded=0;fontFamily=Helvetica;fontSize=12;fontColor=default;curved=0;strokeWidth=3.1496;" parent="ql_3GnGEkS4ERAGS1-E4-182" edge="1">
          <mxGeometry width="50" height="50" relative="1" as="geometry">
            <mxPoint x="10.727000000000032" y="82.43700000000001" as="sourcePoint" />
            <mxPoint x="43.79000000000002" y="55.5" as="targetPoint" />
          </mxGeometry>
        </mxCell>
        <mxCell id="ql_3GnGEkS4ERAGS1-E4-166" value="" style="endArrow=none;html=1;rounded=0;fontFamily=Helvetica;fontSize=12;fontColor=default;curved=0;strokeWidth=3.1496;" parent="ql_3GnGEkS4ERAGS1-E4-182" edge="1">
          <mxGeometry width="50" height="50" relative="1" as="geometry">
            <mxPoint x="42.28400000000005" y="56.624000000000024" as="sourcePoint" />
            <mxPoint x="11.79000000000002" y="19.5" as="targetPoint" />
          </mxGeometry>
        </mxCell>
        <mxCell id="ql_3GnGEkS4ERAGS1-E4-168" value="" style="endArrow=none;html=1;rounded=0;fontFamily=Helvetica;fontSize=12;fontColor=default;curved=0;strokeWidth=3.1496;" parent="ql_3GnGEkS4ERAGS1-E4-182" edge="1">
          <mxGeometry width="50" height="50" relative="1" as="geometry">
            <mxPoint x="27.79000000000002" y="70.5" as="sourcePoint" />
            <mxPoint x="11.79000000000002" y="51.5" as="targetPoint" />
          </mxGeometry>
        </mxCell>
        <mxCell id="ql_3GnGEkS4ERAGS1-E4-170" value="" style="endArrow=none;html=1;rounded=0;fontFamily=Helvetica;fontSize=12;fontColor=default;curved=0;strokeWidth=1.1810999999999998;" parent="ql_3GnGEkS4ERAGS1-E4-182" edge="1">
          <mxGeometry width="50" height="50" relative="1" as="geometry">
            <mxPoint x="7.747000000000014" y="81.87699999999995" as="sourcePoint" />
            <mxPoint x="7.747000000000014" y="3.8770000000000095" as="targetPoint" />
          </mxGeometry>
        </mxCell>
        <mxCell id="ql_3GnGEkS4ERAGS1-E4-173" value="" style="rounded=1;whiteSpace=wrap;html=1;fillStyle=auto;strokeColor=default;align=center;verticalAlign=middle;fontFamily=Helvetica;fontSize=12;fontColor=default;fillColor=#FFFFFF;gradientColor=none;" parent="ql_3GnGEkS4ERAGS1-E4-182" vertex="1">
          <mxGeometry width="19.69" height="3.94" as="geometry" />
        </mxCell>
        <mxCell id="ql_3GnGEkS4ERAGS1-E4-174" value="" style="ellipse;whiteSpace=wrap;html=1;aspect=fixed;fillStyle=auto;strokeColor=default;align=center;verticalAlign=middle;fontFamily=Helvetica;fontSize=12;fontColor=default;fillColor=#FFFFFF;" parent="ql_3GnGEkS4ERAGS1-E4-182" vertex="1">
          <mxGeometry x="7.720000000000027" y="78.67999999999995" width="7.87" height="7.87" as="geometry" />
        </mxCell>
        <mxCell id="ql_3GnGEkS4ERAGS1-E4-181" value="Frusta K&lt;br&gt;~15min" style="text;html=1;align=center;verticalAlign=middle;resizable=0;points=[];autosize=1;strokeColor=none;fillColor=none;fontFamily=Helvetica;fontSize=12;fontColor=default;" parent="ql_3GnGEkS4ERAGS1-E4-182" vertex="1">
          <mxGeometry x="35.78800000000007" y="27.43100000000004" width="66.929" height="43.306999999999995" as="geometry" />
        </mxCell>
        <mxCell id="ql_3GnGEkS4ERAGS1-E4-184" value="" style="endArrow=classic;html=1;rounded=1;fontFamily=Helvetica;fontSize=12;fontColor=default;curved=0;" parent="1" edge="1">
          <mxGeometry width="50" height="50" relative="1" as="geometry">
            <mxPoint x="234.29700000000003" y="381.03700000000015" as="sourcePoint" />
            <mxPoint x="233.62" y="593.16" as="targetPoint" />
            <Array as="points">
              <mxPoint x="234.03500000000008" y="381.015" />
            </Array>
          </mxGeometry>
        </mxCell>
        <mxCell id="ql_3GnGEkS4ERAGS1-E4-247" value="" style="edgeLabel;html=1;align=center;verticalAlign=middle;resizable=0;points=[];fillStyle=dots;strokeColor=default;fontFamily=Helvetica;fontSize=12;fontColor=default;fillColor=#FF0000;" parent="ql_3GnGEkS4ERAGS1-E4-184" vertex="1" connectable="0">
          <mxGeometry x="0.7016" relative="1" as="geometry">
            <mxPoint as="offset" />
          </mxGeometry>
        </mxCell>
        <mxCell id="ql_3GnGEkS4ERAGS1-E4-194" value="" style="group" parent="1" vertex="1" connectable="0">
          <mxGeometry x="186.914" y="644.7539999999999" width="95" height="51" as="geometry" />
        </mxCell>
        <mxCell id="ql_3GnGEkS4ERAGS1-E4-195" value="" style="endArrow=none;html=1;rounded=1;shadow=0;curved=0;strokeWidth=1.1811;" parent="ql_3GnGEkS4ERAGS1-E4-194" edge="1">
          <mxGeometry width="50" height="50" relative="1" as="geometry">
            <mxPoint x="95" as="sourcePoint" />
            <mxPoint as="targetPoint" />
            <Array as="points">
              <mxPoint x="95" y="51" />
              <mxPoint x="48" y="51" />
              <mxPoint y="51" />
            </Array>
          </mxGeometry>
        </mxCell>
        <mxCell id="ql_3GnGEkS4ERAGS1-E4-196" value="" style="endArrow=none;html=1;rounded=1;shadow=0;curved=0;strokeWidth=1.1811;" parent="ql_3GnGEkS4ERAGS1-E4-194" edge="1">
          <mxGeometry width="50" height="50" relative="1" as="geometry">
            <mxPoint x="91" as="sourcePoint" />
            <mxPoint x="4" as="targetPoint" />
            <Array as="points">
              <mxPoint x="91" y="47" />
              <mxPoint x="4" y="47" />
            </Array>
          </mxGeometry>
        </mxCell>
        <mxCell id="ql_3GnGEkS4ERAGS1-E4-197" value="" style="group" parent="1" vertex="1" connectable="0">
          <mxGeometry x="206.59700000000004" y="648.6969999999999" width="56.00999999999999" height="33.22999999999996" as="geometry" />
        </mxCell>
        <mxCell id="ql_3GnGEkS4ERAGS1-E4-198" value="" style="group" parent="ql_3GnGEkS4ERAGS1-E4-197" vertex="1" connectable="0">
          <mxGeometry width="56.00999999999999" height="33.22999999999999" as="geometry" />
        </mxCell>
        <mxCell id="ql_3GnGEkS4ERAGS1-E4-199" value="" style="group;fillColor=none;container=0;fillStyle=dots;" parent="ql_3GnGEkS4ERAGS1-E4-198" vertex="1" connectable="0">
          <mxGeometry width="56.01" height="33.23" as="geometry" />
        </mxCell>
        <mxCell id="ql_3GnGEkS4ERAGS1-E4-200" value="" style="verticalLabelPosition=bottom;verticalAlign=top;html=1;shape=mxgraph.basic.arc;startAngle=0.5228132783035719;endAngle=0.931180165086578;fillStyle=auto;fillColor=#66FFB3;" parent="ql_3GnGEkS4ERAGS1-E4-198" vertex="1">
          <mxGeometry y="10.029958878139894" width="23.170383608225663" height="23.16066798628343" as="geometry" />
        </mxCell>
        <mxCell id="ql_3GnGEkS4ERAGS1-E4-201" value="" style="verticalLabelPosition=bottom;verticalAlign=top;html=1;shape=mxgraph.basic.arc;startAngle=0.7768001258780505;endAngle=0.08146438747349113;" parent="ql_3GnGEkS4ERAGS1-E4-198" vertex="1">
          <mxGeometry x="6.389999999999986" y="1.8200000000000216" width="25.11" height="23.16" as="geometry" />
        </mxCell>
        <mxCell id="ql_3GnGEkS4ERAGS1-E4-202" value="" style="verticalLabelPosition=bottom;verticalAlign=top;html=1;shape=mxgraph.basic.arc;startAngle=0.8805625920328525;endAngle=0.23557103081184777;fillColor=#97D077;" parent="ql_3GnGEkS4ERAGS1-E4-198" vertex="1">
          <mxGeometry x="20.981709172592673" width="23.170383608225663" height="23.16066798628343" as="geometry" />
        </mxCell>
        <mxCell id="ql_3GnGEkS4ERAGS1-E4-203" value="" style="verticalLabelPosition=bottom;verticalAlign=top;html=1;shape=mxgraph.basic.arc;startAngle=0.9911671385559326;endAngle=0.5054236362483322;" parent="ql_3GnGEkS4ERAGS1-E4-198" vertex="1">
          <mxGeometry x="32.839616391774314" y="10.03019048481977" width="23.170383608225663" height="23.16066798628343" as="geometry" />
        </mxCell>
        <mxCell id="ql_3GnGEkS4ERAGS1-E4-204" value="" style="endArrow=none;html=1;rounded=0;" parent="ql_3GnGEkS4ERAGS1-E4-198" edge="1">
          <mxGeometry width="50" height="50" relative="1" as="geometry">
            <mxPoint x="9.863875299403048" y="33.150000000000034" as="sourcePoint" />
            <mxPoint x="44.156043039577014" y="33.150000000000034" as="targetPoint" />
          </mxGeometry>
        </mxCell>
        <mxCell id="ql_3GnGEkS4ERAGS1-E4-205" value="" style="group" parent="ql_3GnGEkS4ERAGS1-E4-197" vertex="1" connectable="0">
          <mxGeometry x="8.740000000000009" y="7.755000000000109" width="39.37500000000017" height="22.93199999999996" as="geometry" />
        </mxCell>
        <mxCell id="ql_3GnGEkS4ERAGS1-E4-206" value="" style="ellipse;whiteSpace=wrap;html=1;fillStyle=auto;strokeColor=none;align=center;verticalAlign=middle;fontFamily=Helvetica;fontSize=12;fontColor=default;fillColor=#999999;" parent="ql_3GnGEkS4ERAGS1-E4-205" vertex="1">
          <mxGeometry y="10.784999999999968" width="3.95" height="4.09" as="geometry" />
        </mxCell>
        <mxCell id="ql_3GnGEkS4ERAGS1-E4-207" value="" style="ellipse;whiteSpace=wrap;html=1;fillStyle=auto;strokeColor=none;align=center;verticalAlign=middle;fontFamily=Helvetica;fontSize=12;fontColor=default;fillColor=#999999;" parent="ql_3GnGEkS4ERAGS1-E4-205" vertex="1">
          <mxGeometry x="7.867000000000019" y="18.841999999999985" width="3.95" height="4.09" as="geometry" />
        </mxCell>
        <mxCell id="ql_3GnGEkS4ERAGS1-E4-208" value="" style="ellipse;whiteSpace=wrap;html=1;fillStyle=auto;strokeColor=none;align=center;verticalAlign=middle;fontFamily=Helvetica;fontSize=12;fontColor=default;fillColor=#999999;" parent="ql_3GnGEkS4ERAGS1-E4-205" vertex="1">
          <mxGeometry x="15.744000000000085" y="7.868999999999971" width="3.95" height="4.09" as="geometry" />
        </mxCell>
        <mxCell id="ql_3GnGEkS4ERAGS1-E4-209" value="" style="ellipse;whiteSpace=wrap;html=1;fillStyle=auto;strokeColor=none;align=center;verticalAlign=middle;fontFamily=Helvetica;fontSize=12;fontColor=default;fillColor=#999999;" parent="ql_3GnGEkS4ERAGS1-E4-205" vertex="1">
          <mxGeometry x="23.62100000000015" y="14.875999999999976" width="3.95" height="4.09" as="geometry" />
        </mxCell>
        <mxCell id="ql_3GnGEkS4ERAGS1-E4-210" value="" style="ellipse;whiteSpace=wrap;html=1;fillStyle=auto;strokeColor=none;align=center;verticalAlign=middle;fontFamily=Helvetica;fontSize=12;fontColor=default;fillColor=#999999;" parent="ql_3GnGEkS4ERAGS1-E4-205" vertex="1">
          <mxGeometry x="27.568000000000154" y="3.782999999999987" width="3.95" height="4.09" as="geometry" />
        </mxCell>
        <mxCell id="ql_3GnGEkS4ERAGS1-E4-211" value="" style="ellipse;whiteSpace=wrap;html=1;fillStyle=auto;strokeColor=none;align=center;verticalAlign=middle;fontFamily=Helvetica;fontSize=12;fontColor=default;fillColor=#999999;" parent="ql_3GnGEkS4ERAGS1-E4-205" vertex="1">
          <mxGeometry x="7.865000000000123" width="3.95" height="4.09" as="geometry" />
        </mxCell>
        <mxCell id="ql_3GnGEkS4ERAGS1-E4-212" value="" style="ellipse;whiteSpace=wrap;html=1;fillStyle=auto;strokeColor=none;align=center;verticalAlign=middle;fontFamily=Helvetica;fontSize=12;fontColor=default;fillColor=#999999;" parent="ql_3GnGEkS4ERAGS1-E4-205" vertex="1">
          <mxGeometry x="35.425000000000125" y="11.95999999999998" width="3.95" height="4.09" as="geometry" />
        </mxCell>
        <mxCell id="ql_3GnGEkS4ERAGS1-E4-213" value="piegature" style="shape=image;verticalLabelPosition=middle;labelBackgroundColor=default;verticalAlign=middle;aspect=fixed;imageAspect=0;image=data:image/svg+xml,PHN2ZyB4bWxucz0iaHR0cDovL3d3dy53My5vcmcvMjAwMC9zdmciIHk9IjBweCIgeD0iMHB4IiB2aWV3Qm94PSIwIDAgNjAgNzUiPjxnPjxwYXRoIGQ9Ik00OC45NSwzNi41M2wxLjMyLTIuMDNjMS45OC0zLjA3LDIuMjktNi44MSwuODktMTAuMTNsOC4xNy0xMi42M2MuNjEtLjk0LC44Mi0yLjA3LC41OS0zLjE3LS4yNC0xLjEtLjg5LTIuMDQtMS44My0yLjY2TDQ5Ljk5LC42OGMtLjk0LS42MS0yLjA3LS44Mi0zLjE3LS41OS0xLjEsLjI0LTIuMDQsLjg5LTIuNjUsMS44M2wtNy44NCwxMi4xMWMtMi4yMi0uMTktNC40NywuMy02LjM4LDEuNDFMMTMuMTUsMjQuNjRjLTEuNzQsMS4wMy0yLjQ1LDMuMjEtMS42NSw1LjA2LC4zMSwuNzMsLjgzLDEuMzUsMS41LDEuNzgsLjA2LC4wNCwuMTIsLjA2LC4xOCwuMUM0LjU3LDM3LjE2LDAsNDcuMTcsMCw1M2MwLDEuODgsLjczLDMuNjQsMi4wNSw0Ljk0LDEuMzEsMS4zMywzLjA3LDIuMDYsNC45NSwyLjA2SDUzYzMuODYsMCw3LTMuMTQsNy03LDAtNi42Mi00LjAyLTEyLjU3LTExLjA1LTE2LjQ3Wm0tMTkuNzctMy4wMWMuMy0uNDYsLjE3LTEuMDgtLjMtMS4zOC0uNDYtLjMtMS4wOC0uMTctMS4zOCwuMywwLDAtOS4wNywxNC4wMS05LjA4LDE0LjAyLS4zLC40NS0uNzYsLjc3LTEuMjgsLjg5LS41MywuMTEtMS4wOSwwLTEuNTQtLjI3LS45NC0uNjItMS4yMi0xLjg5LS42MS0yLjgzbDEwLjg0LTE2Ljc1Yy4yNC0uMzcsLjIxLS44Ni0uMDgtMS4yLS4yOS0uMzQtLjc3LS40NC0xLjE3LS4yNiwwLDAtOC40NSwzLjg1LTguNDgsMy44Ni0uNjUsLjMzLTEuNDEsLjI5LTIuMDItLjExLS4zMy0uMjEtLjU5LS41Mi0uNzQtLjg5LS40LS45NC0uMDUtMi4wMywuOC0yLjU0bDE2Ljc4LTkuMTljMS43My0xLDMuNzctMS4zOSw1Ljc1LTEuMSwuMzksLjA2LC43Ny0uMTIsLjk4LS40NUw0NS44NCwzLjAxYy4zMi0uNSwuODEtLjg0LDEuMzktLjk2LC41OC0uMTIsMS4xNy0uMDEsMS42NiwuMzFsOC4wOSw1LjIzYy41LC4zMiwuODQsLjgyLC45NiwxLjRzLjAxLDEuMTctLjMxLDEuNjdsLTguNDcsMTMuMDljLS4xOSwuMjktLjIxLC42Ny0uMDYsLjk4LDEuMzcsMi44MSwxLjE3LDYuMDYtLjUzLDguNjlsLTEyLjM4LDE5LjEzYy0uNiwuOTMtMS44OSwxLjItMi44MiwuNi0uOTUtLjYxLTEuMTktMS44OS0uNi0yLjgzbDYuNTktMTAuMTljLjMtLjQ2LC4xNy0xLjA4LS4zLTEuMzgtLjQ2LS4zLTEuMDgtLjE3LTEuMzgsLjNsLTkuMDgsMTQuMDNjLS42LC45Mi0xLjg5LDEuMTktMi44MSwuNi0uOTQtLjYxLTEuMjEtMS44Ni0uNi0yLjgybDkuMDgtMTQuMDNjLjMtLjQ2LC4xNy0xLjA4LS4zLTEuMzgtLjQ2LS4zLTEuMDgtLjE3LTEuMzgsLjNsLTExLjE0LDE3LjIxYy0uNTksLjkyLTEuOSwxLjIxLTIuODEsLjYxLS45NS0uNjItMS4yMi0xLjg4LS42MS0yLjgybDExLjE0LTE3LjIxWm0yMy44MiwyNC40N0g3Yy0xLjM0LDAtMi41OS0uNTItMy41NC0xLjQ3LS45NC0uOTQtMS40Ni0yLjE5LTEuNDYtMy41MywwLTUuNzksNS4zNC0xNi43MSwxNC45OS0yMS4zaDBsNS4zMS0yLjQyLTguOTgsMTMuODhjLTEuMjEsMS44Ny0uNjcsNC4zNywxLjIxLDUuNiwuNiwuMzgsMS4zLC41OSwyLC42MmwtLjE3LC4yNmMtMS4yMSwxLjg2LS42OCw0LjM2LDEuMTksNS41OCwuODksLjU5LDEuOTcsLjc5LDMuMDQsLjU2LDEuMDYtLjIzLDEuOTYtLjg2LDIuNTQtMS43NWwuMTctLjI2Yy4zMSwuNjIsLjc5LDEuMTcsMS40MSwxLjU3LC42NywuNDMsMS40MiwuNjUsMi4xOCwuNjUsLjI5LDAsLjU3LS4wMywuODYtLjA5LDEuMDctLjIyLDEuOTctLjg1LDIuNTQtMS43NWwuNTgtLjljLjMyLC42MywuOCwxLjE4LDEuNDIsMS41NywuOSwuNTgsMS45OCwuNzgsMy4wNSwuNTUsMS4wNC0uMjQsMS45Ny0uODgsMi41My0xLjc1bDkuOTgtMTUuNDFjNi40NiwzLjU0LDEwLjE0LDguODgsMTAuMTQsMTQuNzgsMCwyLjc2LTIuMjQsNS01LDVaIi8+PC9nPjx0ZXh0IGZvbnQtZmFtaWx5PSInSGVsdmV0aWNhIE5ldWUnLCBIZWx2ZXRpY2EsIEFyaWFsLVVuaWNvZGUsIEFyaWFsLCBTYW5zLXNlcmlmIiBmb250LXdlaWdodD0iYm9sZCIgZm9udC1zaXplPSI1cHgiIGZpbGw9IiMwMDAwMDAiIHk9Ijc1IiB4PSIwIj5DcmVhdGVkIGJ5IEp1aWN5IEZpc2g8L3RleHQ+PHRleHQgZm9udC1mYW1pbHk9IidIZWx2ZXRpY2EgTmV1ZScsIEhlbHZldGljYSwgQXJpYWwtVW5pY29kZSwgQXJpYWwsIFNhbnMtc2VyaWYiIGZvbnQtd2VpZ2h0PSJib2xkIiBmb250LXNpemU9IjVweCIgZmlsbD0iIzAwMDAwMCIgeT0iODAiIHg9IjAiPmZyb20gdGhlIE5vdW4gUHJvamVjdDwvdGV4dD48L3N2Zz4=;clipPath=inset(0% 0% 18.67% 0%);labelPosition=right;align=left;" parent="1" vertex="1">
          <mxGeometry x="257.78000000000003" y="503.06000000000006" width="30.77" height="31.28" as="geometry" />
        </mxCell>
        <mxCell id="ql_3GnGEkS4ERAGS1-E4-252" value="" style="group" parent="1" vertex="1" connectable="0">
          <mxGeometry x="293.97" y="562.0799999999999" width="69.76999999999998" height="70.88999999999999" as="geometry" />
        </mxCell>
        <mxCell id="ql_3GnGEkS4ERAGS1-E4-242" value="" style="verticalLabelPosition=bottom;verticalAlign=top;html=1;shape=mxgraph.basic.arc;startAngle=0.2547732166712652;endAngle=0.7452267833287348;fillStyle=dots;strokeColor=default;align=center;fontFamily=Helvetica;fontSize=12;fontColor=default;fillColor=#FF0000;" parent="ql_3GnGEkS4ERAGS1-E4-252" vertex="1">
          <mxGeometry width="69.77" height="70.89" as="geometry" />
        </mxCell>
        <mxCell id="ql_3GnGEkS4ERAGS1-E4-244" value="" style="ellipse;whiteSpace=wrap;html=1;aspect=fixed;fillStyle=auto;strokeColor=default;align=center;verticalAlign=middle;fontFamily=Helvetica;fontSize=12;fontColor=default;fillColor=#FF0000;" parent="ql_3GnGEkS4ERAGS1-E4-252" vertex="1">
          <mxGeometry x="19.16999999999996" y="40.42000000000007" width="9.81" height="9.81" as="geometry" />
        </mxCell>
        <mxCell id="ql_3GnGEkS4ERAGS1-E4-245" value="" style="ellipse;whiteSpace=wrap;html=1;aspect=fixed;fillStyle=auto;strokeColor=default;align=center;verticalAlign=middle;fontFamily=Helvetica;fontSize=12;fontColor=default;fillColor=#FF0000;" parent="ql_3GnGEkS4ERAGS1-E4-252" vertex="1">
          <mxGeometry x="40.789999999999964" y="34.48000000000002" width="9.81" height="9.81" as="geometry" />
        </mxCell>
        <mxCell id="ql_3GnGEkS4ERAGS1-E4-243" value="tuorli&lt;div&gt;&lt;br&gt;&lt;/div&gt;&lt;div&gt;&lt;br&gt;&lt;/div&gt;" style="verticalLabelPosition=middle;verticalAlign=middle;html=1;shape=mxgraph.basic.arc;startAngle=0.2547732166712652;endAngle=0.7452267833287348;fillStyle=dots;strokeColor=default;align=center;fontFamily=Helvetica;fontSize=12;fontColor=default;fillColor=#FF0000;labelPosition=center;" parent="ql_3GnGEkS4ERAGS1-E4-252" vertex="1">
          <mxGeometry x="3.94" y="5.92" width="62.99" height="61.01" as="geometry" />
        </mxCell>
        <mxCell id="ql_3GnGEkS4ERAGS1-E4-251" value="" style="ellipse;whiteSpace=wrap;html=1;aspect=fixed;fillStyle=auto;strokeColor=default;align=center;verticalAlign=middle;fontFamily=Helvetica;fontSize=12;fontColor=default;fillColor=#FF0000;" parent="ql_3GnGEkS4ERAGS1-E4-252" vertex="1">
          <mxGeometry x="32.42700000000002" y="50.22700000000009" width="9.81" height="9.81" as="geometry" />
        </mxCell>
        <mxCell id="ql_3GnGEkS4ERAGS1-E4-259" value="burro&#xa;a pomata&#xa;&#xa;&#xa;" style="group;labelPosition=center;verticalLabelPosition=middle;align=center;verticalAlign=middle;labelBorderColor=none;" parent="1" vertex="1" connectable="0">
          <mxGeometry x="94.92399999999998" y="550.3040000000001" width="89.24" height="94.44" as="geometry" />
        </mxCell>
        <mxCell id="ql_3GnGEkS4ERAGS1-E4-260" value="" style="verticalLabelPosition=bottom;verticalAlign=top;html=1;shape=mxgraph.basic.arc;startAngle=0.2547732166712652;endAngle=0.7452267833287348;fillStyle=dots;strokeColor=default;align=center;fontFamily=Helvetica;fontSize=12;fontColor=default;fillColor=#FF0000;" parent="ql_3GnGEkS4ERAGS1-E4-259" vertex="1">
          <mxGeometry x="11.11" y="11.75" width="67.02" height="70.93" as="geometry" />
        </mxCell>
        <mxCell id="ql_3GnGEkS4ERAGS1-E4-261" value="" style="verticalLabelPosition=bottom;verticalAlign=top;html=1;shape=mxgraph.basic.arc;startAngle=0.2547732166712652;endAngle=0.7452267833287348;fillStyle=dots;strokeColor=default;align=center;fontFamily=Helvetica;fontSize=12;fontColor=default;fillColor=#FF0000;" parent="ql_3GnGEkS4ERAGS1-E4-259" vertex="1">
          <mxGeometry x="14.44" y="15.75" width="60.37" height="62.94" as="geometry" />
        </mxCell>
        <mxCell id="ql_3GnGEkS4ERAGS1-E4-262" value="" style="rounded=1;whiteSpace=wrap;html=1;fillStyle=auto;strokeColor=default;align=center;verticalAlign=middle;fontFamily=Helvetica;fontSize=12;fontColor=default;fillColor=#E6E6E6;rotation=15;" parent="ql_3GnGEkS4ERAGS1-E4-259" vertex="1">
          <mxGeometry x="47.06300000000005" y="55.11299999999982" width="14.79" height="10.85" as="geometry" />
        </mxCell>
        <mxCell id="ql_3GnGEkS4ERAGS1-E4-263" value="" style="rounded=1;whiteSpace=wrap;html=1;fillStyle=auto;strokeColor=default;align=center;verticalAlign=middle;fontFamily=Helvetica;fontSize=12;fontColor=default;fillColor=#E6E6E6;rotation=-15;" parent="ql_3GnGEkS4ERAGS1-E4-259" vertex="1">
          <mxGeometry x="27.38299999999999" y="55.112999999999936" width="13.86" height="10.86" as="geometry" />
        </mxCell>
        <mxCell id="ql_3GnGEkS4ERAGS1-E4-264" value="" style="endArrow=classic;html=1;rounded=1;fontFamily=Helvetica;fontSize=12;fontColor=default;curved=0;" parent="1" edge="1">
          <mxGeometry width="50" height="50" relative="1" as="geometry">
            <mxPoint x="177.62" y="597.0699999999999" as="sourcePoint" />
            <mxPoint x="218.61700000000002" y="643.1769999999999" as="targetPoint" />
            <Array as="points">
              <mxPoint x="213.62" y="601.0699999999999" />
            </Array>
          </mxGeometry>
        </mxCell>
        <mxCell id="ql_3GnGEkS4ERAGS1-E4-265" value="" style="endArrow=classic;html=1;rounded=1;fontFamily=Helvetica;fontSize=12;fontColor=default;curved=0;" parent="1" edge="1">
          <mxGeometry width="50" height="50" relative="1" as="geometry">
            <mxPoint x="291.55399999999986" y="597.007" as="sourcePoint" />
            <mxPoint x="250.55699999999985" y="643.1139999999999" as="targetPoint" />
            <Array as="points">
              <mxPoint x="255.55399999999986" y="601.007" />
            </Array>
          </mxGeometry>
        </mxCell>
        <mxCell id="ql_3GnGEkS4ERAGS1-E4-266" value="12 ore&lt;br&gt;28C" style="endArrow=classic;html=1;rounded=1;fontFamily=Helvetica;fontSize=12;fontColor=default;curved=0;" parent="1" edge="1">
          <mxGeometry width="50" height="50" relative="1" as="geometry">
            <mxPoint x="312.46" y="964.14" as="sourcePoint" />
            <mxPoint x="450.46" y="964.14" as="targetPoint" />
            <Array as="points">
              <mxPoint x="328.46" y="964.14" />
            </Array>
          </mxGeometry>
        </mxCell>
        <mxCell id="ql_3GnGEkS4ERAGS1-E4-267" value="" style="edgeLabel;html=1;align=center;verticalAlign=middle;resizable=0;points=[];fillStyle=dots;strokeColor=default;fontFamily=Helvetica;fontSize=12;fontColor=default;fillColor=#FF0000;" parent="ql_3GnGEkS4ERAGS1-E4-266" vertex="1" connectable="0">
          <mxGeometry x="0.7016" relative="1" as="geometry">
            <mxPoint as="offset" />
          </mxGeometry>
        </mxCell>
        <mxCell id="ql_3GnGEkS4ERAGS1-E4-269" value="" style="group" parent="1" vertex="1" connectable="0">
          <mxGeometry x="249.55699999999996" y="731.407" width="102.71700000000007" height="86.54999999999995" as="geometry" />
        </mxCell>
        <mxCell id="ql_3GnGEkS4ERAGS1-E4-270" value="" style="endArrow=none;html=1;rounded=0;fontFamily=Helvetica;fontSize=12;fontColor=default;curved=0;strokeWidth=1.1810999999999998;" parent="ql_3GnGEkS4ERAGS1-E4-269" edge="1">
          <mxGeometry width="50" height="50" relative="1" as="geometry">
            <mxPoint x="10.810000000000002" y="81.93999999999994" as="sourcePoint" />
            <mxPoint x="10.810000000000002" y="3.9399999999999977" as="targetPoint" />
          </mxGeometry>
        </mxCell>
        <mxCell id="ql_3GnGEkS4ERAGS1-E4-271" value="" style="endArrow=none;html=1;rounded=0;fontFamily=Helvetica;fontSize=12;fontColor=default;curved=0;strokeWidth=3.1496;" parent="ql_3GnGEkS4ERAGS1-E4-269" edge="1">
          <mxGeometry width="50" height="50" relative="1" as="geometry">
            <mxPoint x="10.727000000000032" y="82.43700000000001" as="sourcePoint" />
            <mxPoint x="43.79000000000002" y="55.5" as="targetPoint" />
          </mxGeometry>
        </mxCell>
        <mxCell id="ql_3GnGEkS4ERAGS1-E4-272" value="" style="endArrow=none;html=1;rounded=0;fontFamily=Helvetica;fontSize=12;fontColor=default;curved=0;strokeWidth=3.1496;" parent="ql_3GnGEkS4ERAGS1-E4-269" edge="1">
          <mxGeometry width="50" height="50" relative="1" as="geometry">
            <mxPoint x="42.28400000000005" y="56.624000000000024" as="sourcePoint" />
            <mxPoint x="11.79000000000002" y="19.5" as="targetPoint" />
          </mxGeometry>
        </mxCell>
        <mxCell id="ql_3GnGEkS4ERAGS1-E4-273" value="" style="endArrow=none;html=1;rounded=0;fontFamily=Helvetica;fontSize=12;fontColor=default;curved=0;strokeWidth=3.1496;" parent="ql_3GnGEkS4ERAGS1-E4-269" edge="1">
          <mxGeometry width="50" height="50" relative="1" as="geometry">
            <mxPoint x="27.79000000000002" y="70.5" as="sourcePoint" />
            <mxPoint x="11.79000000000002" y="51.5" as="targetPoint" />
          </mxGeometry>
        </mxCell>
        <mxCell id="ql_3GnGEkS4ERAGS1-E4-274" value="" style="endArrow=none;html=1;rounded=0;fontFamily=Helvetica;fontSize=12;fontColor=default;curved=0;strokeWidth=1.1810999999999998;" parent="ql_3GnGEkS4ERAGS1-E4-269" edge="1">
          <mxGeometry width="50" height="50" relative="1" as="geometry">
            <mxPoint x="7.747000000000014" y="81.87699999999995" as="sourcePoint" />
            <mxPoint x="7.747000000000014" y="3.8770000000000095" as="targetPoint" />
          </mxGeometry>
        </mxCell>
        <mxCell id="ql_3GnGEkS4ERAGS1-E4-275" value="" style="rounded=1;whiteSpace=wrap;html=1;fillStyle=auto;strokeColor=default;align=center;verticalAlign=middle;fontFamily=Helvetica;fontSize=12;fontColor=default;fillColor=#FFFFFF;gradientColor=none;" parent="ql_3GnGEkS4ERAGS1-E4-269" vertex="1">
          <mxGeometry width="19.69" height="3.94" as="geometry" />
        </mxCell>
        <mxCell id="ql_3GnGEkS4ERAGS1-E4-276" value="" style="ellipse;whiteSpace=wrap;html=1;aspect=fixed;fillStyle=auto;strokeColor=default;align=center;verticalAlign=middle;fontFamily=Helvetica;fontSize=12;fontColor=default;fillColor=#FFFFFF;" parent="ql_3GnGEkS4ERAGS1-E4-269" vertex="1">
          <mxGeometry x="7.720000000000027" y="78.67999999999995" width="7.87" height="7.87" as="geometry" />
        </mxCell>
        <mxCell id="ql_3GnGEkS4ERAGS1-E4-277" value="Frusta K&lt;br&gt;~10min" style="text;html=1;align=center;verticalAlign=middle;resizable=0;points=[];autosize=1;strokeColor=none;fillColor=none;fontFamily=Helvetica;fontSize=12;fontColor=default;" parent="ql_3GnGEkS4ERAGS1-E4-269" vertex="1">
          <mxGeometry x="35.78800000000007" y="27.43100000000004" width="66.929" height="43.306999999999995" as="geometry" />
        </mxCell>
        <mxCell id="ql_3GnGEkS4ERAGS1-E4-279" value="" style="group" parent="1" vertex="1" connectable="0">
          <mxGeometry x="185.98700000000002" y="943.997" width="95" height="51" as="geometry" />
        </mxCell>
        <mxCell id="ql_3GnGEkS4ERAGS1-E4-280" value="" style="endArrow=none;html=1;rounded=1;shadow=0;curved=0;strokeWidth=1.1811;" parent="ql_3GnGEkS4ERAGS1-E4-279" edge="1">
          <mxGeometry width="50" height="50" relative="1" as="geometry">
            <mxPoint x="95" as="sourcePoint" />
            <mxPoint as="targetPoint" />
            <Array as="points">
              <mxPoint x="95" y="51" />
              <mxPoint x="48" y="51" />
              <mxPoint y="51" />
            </Array>
          </mxGeometry>
        </mxCell>
        <mxCell id="ql_3GnGEkS4ERAGS1-E4-281" value="" style="endArrow=none;html=1;rounded=1;shadow=0;curved=0;strokeWidth=1.1811;" parent="ql_3GnGEkS4ERAGS1-E4-279" edge="1">
          <mxGeometry width="50" height="50" relative="1" as="geometry">
            <mxPoint x="91" as="sourcePoint" />
            <mxPoint x="4" as="targetPoint" />
            <Array as="points">
              <mxPoint x="91" y="47" />
              <mxPoint x="4" y="47" />
            </Array>
          </mxGeometry>
        </mxCell>
        <mxCell id="ql_3GnGEkS4ERAGS1-E4-282" value="" style="verticalLabelPosition=bottom;verticalAlign=top;html=1;shape=mxgraph.basic.arc;startAngle=0.625;endAngle=0.3659153113244902;fillColor=#E6E6E6;" parent="ql_3GnGEkS4ERAGS1-E4-279" vertex="1">
          <mxGeometry x="23.09" y="-3.94" width="51.71" height="48.82" as="geometry" />
        </mxCell>
        <mxCell id="ql_3GnGEkS4ERAGS1-E4-283" value="piegature" style="shape=image;verticalLabelPosition=middle;labelBackgroundColor=default;verticalAlign=middle;aspect=fixed;imageAspect=0;image=data:image/svg+xml,PHN2ZyB4bWxucz0iaHR0cDovL3d3dy53My5vcmcvMjAwMC9zdmciIHk9IjBweCIgeD0iMHB4IiB2aWV3Qm94PSIwIDAgNjAgNzUiPjxnPjxwYXRoIGQ9Ik00OC45NSwzNi41M2wxLjMyLTIuMDNjMS45OC0zLjA3LDIuMjktNi44MSwuODktMTAuMTNsOC4xNy0xMi42M2MuNjEtLjk0LC44Mi0yLjA3LC41OS0zLjE3LS4yNC0xLjEtLjg5LTIuMDQtMS44My0yLjY2TDQ5Ljk5LC42OGMtLjk0LS42MS0yLjA3LS44Mi0zLjE3LS41OS0xLjEsLjI0LTIuMDQsLjg5LTIuNjUsMS44M2wtNy44NCwxMi4xMWMtMi4yMi0uMTktNC40NywuMy02LjM4LDEuNDFMMTMuMTUsMjQuNjRjLTEuNzQsMS4wMy0yLjQ1LDMuMjEtMS42NSw1LjA2LC4zMSwuNzMsLjgzLDEuMzUsMS41LDEuNzgsLjA2LC4wNCwuMTIsLjA2LC4xOCwuMUM0LjU3LDM3LjE2LDAsNDcuMTcsMCw1M2MwLDEuODgsLjczLDMuNjQsMi4wNSw0Ljk0LDEuMzEsMS4zMywzLjA3LDIuMDYsNC45NSwyLjA2SDUzYzMuODYsMCw3LTMuMTQsNy03LDAtNi42Mi00LjAyLTEyLjU3LTExLjA1LTE2LjQ3Wm0tMTkuNzctMy4wMWMuMy0uNDYsLjE3LTEuMDgtLjMtMS4zOC0uNDYtLjMtMS4wOC0uMTctMS4zOCwuMywwLDAtOS4wNywxNC4wMS05LjA4LDE0LjAyLS4zLC40NS0uNzYsLjc3LTEuMjgsLjg5LS41MywuMTEtMS4wOSwwLTEuNTQtLjI3LS45NC0uNjItMS4yMi0xLjg5LS42MS0yLjgzbDEwLjg0LTE2Ljc1Yy4yNC0uMzcsLjIxLS44Ni0uMDgtMS4yLS4yOS0uMzQtLjc3LS40NC0xLjE3LS4yNiwwLDAtOC40NSwzLjg1LTguNDgsMy44Ni0uNjUsLjMzLTEuNDEsLjI5LTIuMDItLjExLS4zMy0uMjEtLjU5LS41Mi0uNzQtLjg5LS40LS45NC0uMDUtMi4wMywuOC0yLjU0bDE2Ljc4LTkuMTljMS43My0xLDMuNzctMS4zOSw1Ljc1LTEuMSwuMzksLjA2LC43Ny0uMTIsLjk4LS40NUw0NS44NCwzLjAxYy4zMi0uNSwuODEtLjg0LDEuMzktLjk2LC41OC0uMTIsMS4xNy0uMDEsMS42NiwuMzFsOC4wOSw1LjIzYy41LC4zMiwuODQsLjgyLC45NiwxLjRzLjAxLDEuMTctLjMxLDEuNjdsLTguNDcsMTMuMDljLS4xOSwuMjktLjIxLC42Ny0uMDYsLjk4LDEuMzcsMi44MSwxLjE3LDYuMDYtLjUzLDguNjlsLTEyLjM4LDE5LjEzYy0uNiwuOTMtMS44OSwxLjItMi44MiwuNi0uOTUtLjYxLTEuMTktMS44OS0uNi0yLjgzbDYuNTktMTAuMTljLjMtLjQ2LC4xNy0xLjA4LS4zLTEuMzgtLjQ2LS4zLTEuMDgtLjE3LTEuMzgsLjNsLTkuMDgsMTQuMDNjLS42LC45Mi0xLjg5LDEuMTktMi44MSwuNi0uOTQtLjYxLTEuMjEtMS44Ni0uNi0yLjgybDkuMDgtMTQuMDNjLjMtLjQ2LC4xNy0xLjA4LS4zLTEuMzgtLjQ2LS4zLTEuMDgtLjE3LTEuMzgsLjNsLTExLjE0LDE3LjIxYy0uNTksLjkyLTEuOSwxLjIxLTIuODEsLjYxLS45NS0uNjItMS4yMi0xLjg4LS42MS0yLjgybDExLjE0LTE3LjIxWm0yMy44MiwyNC40N0g3Yy0xLjM0LDAtMi41OS0uNTItMy41NC0xLjQ3LS45NC0uOTQtMS40Ni0yLjE5LTEuNDYtMy41MywwLTUuNzksNS4zNC0xNi43MSwxNC45OS0yMS4zaDBsNS4zMS0yLjQyLTguOTgsMTMuODhjLTEuMjEsMS44Ny0uNjcsNC4zNywxLjIxLDUuNiwuNiwuMzgsMS4zLC41OSwyLC42MmwtLjE3LC4yNmMtMS4yMSwxLjg2LS42OCw0LjM2LDEuMTksNS41OCwuODksLjU5LDEuOTcsLjc5LDMuMDQsLjU2LDEuMDYtLjIzLDEuOTYtLjg2LDIuNTQtMS43NWwuMTctLjI2Yy4zMSwuNjIsLjc5LDEuMTcsMS40MSwxLjU3LC42NywuNDMsMS40MiwuNjUsMi4xOCwuNjUsLjI5LDAsLjU3LS4wMywuODYtLjA5LDEuMDctLjIyLDEuOTctLjg1LDIuNTQtMS43NWwuNTgtLjljLjMyLC42MywuOCwxLjE4LDEuNDIsMS41NywuOSwuNTgsMS45OCwuNzgsMy4wNSwuNTUsMS4wNC0uMjQsMS45Ny0uODgsMi41My0xLjc1bDkuOTgtMTUuNDFjNi40NiwzLjU0LDEwLjE0LDguODgsMTAuMTQsMTQuNzgsMCwyLjc2LTIuMjQsNS01LDVaIi8+PC9nPjx0ZXh0IGZvbnQtZmFtaWx5PSInSGVsdmV0aWNhIE5ldWUnLCBIZWx2ZXRpY2EsIEFyaWFsLVVuaWNvZGUsIEFyaWFsLCBTYW5zLXNlcmlmIiBmb250LXdlaWdodD0iYm9sZCIgZm9udC1zaXplPSI1cHgiIGZpbGw9IiMwMDAwMDAiIHk9Ijc1IiB4PSIwIj5DcmVhdGVkIGJ5IEp1aWN5IEZpc2g8L3RleHQ+PHRleHQgZm9udC1mYW1pbHk9IidIZWx2ZXRpY2EgTmV1ZScsIEhlbHZldGljYSwgQXJpYWwtVW5pY29kZSwgQXJpYWwsIFNhbnMtc2VyaWYiIGZvbnQtd2VpZ2h0PSJib2xkIiBmb250LXNpemU9IjVweCIgZmlsbD0iIzAwMDAwMCIgeT0iODAiIHg9IjAiPmZyb20gdGhlIE5vdW4gUHJvamVjdDwvdGV4dD48L3N2Zz4=;clipPath=inset(0% 0% 18.67% 0%);labelPosition=right;align=left;" parent="1" vertex="1">
          <mxGeometry x="253.48700000000002" y="884.947" width="30.77" height="31.28" as="geometry" />
        </mxCell>
        <mxCell id="ql_3GnGEkS4ERAGS1-E4-286" value="max&lt;br&gt;35/40 mins" style="shape=curlyBracket;whiteSpace=wrap;html=1;rounded=1;labelPosition=left;verticalLabelPosition=middle;align=right;verticalAlign=middle;fillStyle=dots;strokeColor=default;fontFamily=Helvetica;fontSize=12;fontColor=default;fillColor=#FF0000;" parent="1" vertex="1">
          <mxGeometry x="62.99000000000001" y="199.91" width="57.24" height="818.9" as="geometry" />
        </mxCell>
        <mxCell id="ql_3GnGEkS4ERAGS1-E4-289" value="" style="endArrow=classic;html=1;rounded=1;fontFamily=Helvetica;fontSize=12;fontColor=default;curved=0;" parent="1" edge="1">
          <mxGeometry width="50" height="50" relative="1" as="geometry">
            <mxPoint x="237.34100000000004" y="722.4310000000002" as="sourcePoint" />
            <mxPoint x="236.55700000000002" y="932.097" as="targetPoint" />
            <Array as="points">
              <mxPoint x="237.0790000000001" y="722.409" />
            </Array>
          </mxGeometry>
        </mxCell>
        <mxCell id="ql_3GnGEkS4ERAGS1-E4-290" value="" style="edgeLabel;html=1;align=center;verticalAlign=middle;resizable=0;points=[];fillStyle=dots;strokeColor=default;fontFamily=Helvetica;fontSize=12;fontColor=default;fillColor=#FF0000;" parent="ql_3GnGEkS4ERAGS1-E4-289" vertex="1" connectable="0">
          <mxGeometry x="0.7016" relative="1" as="geometry">
            <mxPoint as="offset" />
          </mxGeometry>
        </mxCell>
        <mxCell id="ql_3GnGEkS4ERAGS1-E4-293" value="" style="group" parent="1" vertex="1" connectable="0">
          <mxGeometry x="477.814" y="940.514" width="95" height="60.63999999999999" as="geometry" />
        </mxCell>
        <mxCell id="ql_3GnGEkS4ERAGS1-E4-294" value="" style="endArrow=none;html=1;rounded=1;shadow=0;curved=0;strokeWidth=1.1811;" parent="ql_3GnGEkS4ERAGS1-E4-293" edge="1">
          <mxGeometry width="50" height="50" relative="1" as="geometry">
            <mxPoint x="95" as="sourcePoint" />
            <mxPoint as="targetPoint" />
            <Array as="points">
              <mxPoint x="95" y="51" />
              <mxPoint x="48" y="51" />
              <mxPoint y="51" />
            </Array>
          </mxGeometry>
        </mxCell>
        <mxCell id="ql_3GnGEkS4ERAGS1-E4-295" value="" style="endArrow=none;html=1;rounded=1;shadow=0;curved=0;strokeWidth=1.1811;" parent="ql_3GnGEkS4ERAGS1-E4-293" edge="1">
          <mxGeometry width="50" height="50" relative="1" as="geometry">
            <mxPoint x="91" as="sourcePoint" />
            <mxPoint x="4" as="targetPoint" />
            <Array as="points">
              <mxPoint x="91" y="47" />
              <mxPoint x="4" y="47" />
            </Array>
          </mxGeometry>
        </mxCell>
        <mxCell id="ql_3GnGEkS4ERAGS1-E4-296" value="3X" style="verticalLabelPosition=middle;verticalAlign=middle;html=1;shape=mxgraph.basic.arc;startAngle=0.625;endAngle=0.3659153113244902;fillColor=#E6E6E6;labelPosition=center;align=center;fontStyle=1" parent="ql_3GnGEkS4ERAGS1-E4-293" vertex="1">
          <mxGeometry x="7.28" y="-23.62" width="79.34" height="78.2" as="geometry" />
        </mxCell>
        <mxCell id="ql_3GnGEkS4ERAGS1-E4-299" value="panettone Iginio Massari&lt;br&gt;PRIMO IMPASTO" style="verticalLabelPosition=middle;verticalAlign=middle;html=1;shape=mxgraph.basic.banner;fillStyle=auto;strokeColor=default;align=center;fontFamily=Helvetica;fontSize=16;fontColor=default;fillColor=#FFFFFF;labelPosition=center;fontStyle=1;shadow=1;" parent="1" vertex="1">
          <mxGeometry x="133.85999999999999" y="35.42999999999999" width="629.92" height="70.87" as="geometry" />
        </mxCell>
        <mxCell id="ql_3GnGEkS4ERAGS1-E4-301" value="panettone Iginio Massari&lt;br&gt;SECONDO impasto" style="verticalLabelPosition=middle;verticalAlign=middle;html=1;shape=mxgraph.basic.banner;fillStyle=auto;strokeColor=default;align=center;fontFamily=Helvetica;fontSize=16;fontColor=default;fillColor=#FFFFFF;labelPosition=center;fontStyle=1;shadow=1;" parent="1" vertex="1">
          <mxGeometry x="909.447" y="39.36699999999999" width="629.92" height="70.87" as="geometry" />
        </mxCell>
        <mxCell id="ql_3GnGEkS4ERAGS1-E4-302" value="" style="group" parent="1" vertex="1" connectable="0">
          <mxGeometry x="1011.8140000000001" y="255.904" width="95" height="51" as="geometry" />
        </mxCell>
        <mxCell id="ql_3GnGEkS4ERAGS1-E4-303" value="" style="endArrow=none;html=1;rounded=1;shadow=0;curved=0;strokeWidth=1.1811;" parent="ql_3GnGEkS4ERAGS1-E4-302" edge="1">
          <mxGeometry width="50" height="50" relative="1" as="geometry">
            <mxPoint x="95" as="sourcePoint" />
            <mxPoint as="targetPoint" />
            <Array as="points">
              <mxPoint x="95" y="51" />
              <mxPoint x="48" y="51" />
              <mxPoint y="51" />
            </Array>
          </mxGeometry>
        </mxCell>
        <mxCell id="ql_3GnGEkS4ERAGS1-E4-304" value="" style="endArrow=none;html=1;rounded=1;shadow=0;curved=0;strokeWidth=1.1811;" parent="ql_3GnGEkS4ERAGS1-E4-302" edge="1">
          <mxGeometry width="50" height="50" relative="1" as="geometry">
            <mxPoint x="91" as="sourcePoint" />
            <mxPoint x="4" as="targetPoint" />
            <Array as="points">
              <mxPoint x="91" y="47" />
              <mxPoint x="4" y="47" />
            </Array>
          </mxGeometry>
        </mxCell>
        <mxCell id="ql_3GnGEkS4ERAGS1-E4-305" value="" style="verticalLabelPosition=bottom;verticalAlign=top;html=1;shape=mxgraph.basic.arc;startAngle=0.625;endAngle=0.3659153113244902;fillColor=#E6E6E6;" parent="ql_3GnGEkS4ERAGS1-E4-302" vertex="1">
          <mxGeometry x="23.09" y="-3.94" width="51.71" height="48.82" as="geometry" />
        </mxCell>
        <mxCell id="ql_3GnGEkS4ERAGS1-E4-318" value="" style="group" parent="1" vertex="1" connectable="0">
          <mxGeometry x="1082.677" y="346.451" width="84.49399999999972" height="49.119000000000085" as="geometry" />
        </mxCell>
        <mxCell id="ql_3GnGEkS4ERAGS1-E4-319" value="" style="rounded=1;whiteSpace=wrap;html=1;fillStyle=auto;strokeColor=default;align=center;verticalAlign=middle;fontFamily=Helvetica;fontSize=12;fontColor=default;fillColor=#FFFFFF;gradientColor=none;" parent="ql_3GnGEkS4ERAGS1-E4-318" vertex="1">
          <mxGeometry x="7.763999999999669" width="19.69" height="3.94" as="geometry" />
        </mxCell>
        <mxCell id="ql_3GnGEkS4ERAGS1-E4-320" value="Frusta&amp;nbsp;&lt;div&gt;Gancio&lt;/div&gt;&lt;div&gt;~15min&lt;/div&gt;" style="text;html=1;align=center;verticalAlign=middle;resizable=0;points=[];autosize=1;strokeColor=none;fillColor=none;fontFamily=Helvetica;fontSize=12;fontColor=default;" parent="ql_3GnGEkS4ERAGS1-E4-318" vertex="1">
          <mxGeometry x="21.501999999999725" y="-5.99899999999991" width="62.992" height="55.117999999999995" as="geometry" />
        </mxCell>
        <mxCell id="ql_3GnGEkS4ERAGS1-E4-321" value="" style="endArrow=none;html=1;rounded=1;fontFamily=Helvetica;fontSize=12;fontColor=default;curved=0;strokeWidth=3.1496;" parent="ql_3GnGEkS4ERAGS1-E4-318" edge="1">
          <mxGeometry width="50" height="50" relative="1" as="geometry">
            <mxPoint x="24" y="39.266000000000076" as="sourcePoint" />
            <mxPoint x="18" y="4.266000000000076" as="targetPoint" />
            <Array as="points">
              <mxPoint x="18" y="47.266000000000076" />
              <mxPoint y="19.266000000000076" />
              <mxPoint x="8" y="12.266000000000076" />
              <mxPoint x="18" y="12.266000000000076" />
            </Array>
          </mxGeometry>
        </mxCell>
        <mxCell id="ql_3GnGEkS4ERAGS1-E4-322" value="" style="ellipse;whiteSpace=wrap;html=1;aspect=fixed;fillStyle=auto;strokeColor=default;align=center;verticalAlign=middle;fontFamily=Helvetica;fontSize=12;fontColor=default;fillColor=#FFFFFF;" parent="ql_3GnGEkS4ERAGS1-E4-318" vertex="1">
          <mxGeometry x="19.823999999999614" y="35.40999999999997" width="7.87" height="7.87" as="geometry" />
        </mxCell>
        <mxCell id="gqrBNzo461zK8NM3udiy-1" value="buccia arancia&lt;br&gt;buccia limone" style="text;html=1;align=center;verticalAlign=middle;resizable=0;points=[];autosize=1;strokeColor=none;fillColor=none;fontFamily=Helvetica;fontSize=12;fontColor=default;" parent="1" vertex="1">
          <mxGeometry x="883.514" y="169.17700000000002" width="98.425" height="43.306999999999995" as="geometry" />
        </mxCell>
        <mxCell id="gqrBNzo461zK8NM3udiy-2" value="" style="endArrow=classic;html=1;rounded=1;fontFamily=Helvetica;fontSize=12;fontColor=default;curved=0;" parent="1" edge="1">
          <mxGeometry width="50" height="50" relative="1" as="geometry">
            <mxPoint x="972.4370000000001" y="192.09699999999998" as="sourcePoint" />
            <mxPoint x="1027.4370000000001" y="251.09700000000004" as="targetPoint" />
            <Array as="points">
              <mxPoint x="1011.4370000000001" y="196.09699999999998" />
              <mxPoint x="1023.4370000000001" y="200.09699999999998" />
              <mxPoint x="1027.4370000000001" y="211.09699999999998" />
            </Array>
          </mxGeometry>
        </mxCell>
        <mxCell id="gqrBNzo461zK8NM3udiy-14" value="farina" style="group" parent="1" vertex="1" connectable="0">
          <mxGeometry x="1145.6639999999998" y="129.92400000000015" width="67.01999999999998" height="70.93000000000006" as="geometry" />
        </mxCell>
        <mxCell id="gqrBNzo461zK8NM3udiy-15" value="" style="verticalLabelPosition=bottom;verticalAlign=top;html=1;shape=mxgraph.basic.arc;startAngle=0.2547732166712652;endAngle=0.7452267833287348;fillStyle=dots;strokeColor=default;align=center;fontFamily=Helvetica;fontSize=12;fontColor=default;fillColor=#FF0000;" parent="gqrBNzo461zK8NM3udiy-14" vertex="1">
          <mxGeometry width="67.02" height="70.93" as="geometry" />
        </mxCell>
        <mxCell id="gqrBNzo461zK8NM3udiy-16" value="" style="verticalLabelPosition=bottom;verticalAlign=top;html=1;shape=mxgraph.basic.arc;startAngle=0.2547732166712652;endAngle=0.7452267833287348;fillStyle=dots;strokeColor=default;align=center;fontFamily=Helvetica;fontSize=12;fontColor=default;fillColor=#FF0000;" parent="gqrBNzo461zK8NM3udiy-14" vertex="1">
          <mxGeometry x="3.3300000000001546" y="4" width="60.37" height="62.94" as="geometry" />
        </mxCell>
        <mxCell id="gqrBNzo461zK8NM3udiy-17" value="" style="pointerEvents=1;verticalLabelPosition=bottom;shadow=0;dashed=0;align=center;html=1;verticalAlign=top;shape=mxgraph.electrical.waveforms.sine_wave;fillStyle=dots;strokeColor=default;fontFamily=Helvetica;fontSize=12;fontColor=default;fillColor=#FF0000;" parent="gqrBNzo461zK8NM3udiy-14" vertex="1">
          <mxGeometry x="15.527000000000044" y="45.686999999999784" width="19.74" height="7.9" as="geometry" />
        </mxCell>
        <mxCell id="gqrBNzo461zK8NM3udiy-18" value="" style="pointerEvents=1;verticalLabelPosition=bottom;shadow=0;dashed=0;align=center;html=1;verticalAlign=top;shape=mxgraph.electrical.waveforms.sine_wave;fillStyle=dots;strokeColor=default;fontFamily=Helvetica;fontSize=12;fontColor=default;fillColor=#FF0000;" parent="gqrBNzo461zK8NM3udiy-14" vertex="1">
          <mxGeometry x="35.27399999999989" y="45.68399999999974" width="19.74" height="7.9" as="geometry" />
        </mxCell>
        <mxCell id="gqrBNzo461zK8NM3udiy-19" value="" style="pointerEvents=1;verticalLabelPosition=bottom;shadow=0;dashed=0;align=center;html=1;verticalAlign=top;shape=mxgraph.electrical.waveforms.sine_wave;fillStyle=dots;strokeColor=default;fontFamily=Helvetica;fontSize=12;fontColor=default;fillColor=#FF0000;" parent="gqrBNzo461zK8NM3udiy-14" vertex="1">
          <mxGeometry x="15.531000000000176" y="37.780999999999835" width="19.74" height="7.9" as="geometry" />
        </mxCell>
        <mxCell id="gqrBNzo461zK8NM3udiy-20" value="" style="pointerEvents=1;verticalLabelPosition=bottom;shadow=0;dashed=0;align=center;html=1;verticalAlign=top;shape=mxgraph.electrical.waveforms.sine_wave;fillStyle=dots;strokeColor=default;fontFamily=Helvetica;fontSize=12;fontColor=default;fillColor=#FF0000;" parent="gqrBNzo461zK8NM3udiy-14" vertex="1">
          <mxGeometry x="35.26800000000003" y="37.77799999999979" width="19.74" height="7.9" as="geometry" />
        </mxCell>
        <mxCell id="gqrBNzo461zK8NM3udiy-21" value="" style="endArrow=classic;html=1;rounded=1;fontFamily=Helvetica;fontSize=12;fontColor=default;curved=0;" parent="1" edge="1">
          <mxGeometry width="50" height="50" relative="1" as="geometry">
            <mxPoint x="1129.917" y="173.22700000000003" as="sourcePoint" />
            <mxPoint x="1075.147" y="244.747" as="targetPoint" />
            <Array as="points">
              <mxPoint x="1074.917" y="197.22699999999998" />
              <mxPoint x="1075.147" y="220.74699999999996" />
            </Array>
          </mxGeometry>
        </mxCell>
        <mxCell id="gqrBNzo461zK8NM3udiy-22" value="" style="endArrow=classic;html=1;rounded=1;fontFamily=Helvetica;fontSize=12;fontColor=default;curved=0;" parent="1" edge="1">
          <mxGeometry width="50" height="50" relative="1" as="geometry">
            <mxPoint x="1059.404" y="314.98400000000015" as="sourcePoint" />
            <mxPoint x="1058.7269999999999" y="527.107" as="targetPoint" />
            <Array as="points">
              <mxPoint x="1059.142" y="314.962" />
            </Array>
          </mxGeometry>
        </mxCell>
        <mxCell id="gqrBNzo461zK8NM3udiy-23" value="" style="edgeLabel;html=1;align=center;verticalAlign=middle;resizable=0;points=[];fillStyle=dots;strokeColor=default;fontFamily=Helvetica;fontSize=12;fontColor=default;fillColor=#FF0000;" parent="gqrBNzo461zK8NM3udiy-22" vertex="1" connectable="0">
          <mxGeometry x="0.7016" relative="1" as="geometry">
            <mxPoint as="offset" />
          </mxGeometry>
        </mxCell>
        <mxCell id="gqrBNzo461zK8NM3udiy-48" value="" style="group" parent="1" vertex="1" connectable="0">
          <mxGeometry x="1295.2779999999998" y="829.6279999999999" width="95" height="51" as="geometry" />
        </mxCell>
        <mxCell id="gqrBNzo461zK8NM3udiy-49" value="" style="group" parent="gqrBNzo461zK8NM3udiy-48" vertex="1" connectable="0">
          <mxGeometry width="95" height="51" as="geometry" />
        </mxCell>
        <mxCell id="gqrBNzo461zK8NM3udiy-50" value="" style="endArrow=none;html=1;rounded=1;shadow=0;curved=0;strokeWidth=1.1811;" parent="gqrBNzo461zK8NM3udiy-49" edge="1">
          <mxGeometry width="50" height="50" relative="1" as="geometry">
            <mxPoint x="95" as="sourcePoint" />
            <mxPoint as="targetPoint" />
            <Array as="points">
              <mxPoint x="95" y="51" />
              <mxPoint x="48" y="51" />
              <mxPoint y="51" />
            </Array>
          </mxGeometry>
        </mxCell>
        <mxCell id="gqrBNzo461zK8NM3udiy-51" value="" style="endArrow=none;html=1;rounded=1;shadow=0;curved=0;strokeWidth=1.1811;" parent="gqrBNzo461zK8NM3udiy-49" edge="1">
          <mxGeometry width="50" height="50" relative="1" as="geometry">
            <mxPoint x="91" as="sourcePoint" />
            <mxPoint x="4" as="targetPoint" />
            <Array as="points">
              <mxPoint x="91" y="47" />
              <mxPoint x="4" y="47" />
            </Array>
          </mxGeometry>
        </mxCell>
        <mxCell id="gqrBNzo461zK8NM3udiy-52" value="" style="group" parent="gqrBNzo461zK8NM3udiy-48" vertex="1" connectable="0">
          <mxGeometry x="19.682999999999993" y="3.9429999999999836" width="56.00999999999999" height="33.22999999999996" as="geometry" />
        </mxCell>
        <mxCell id="gqrBNzo461zK8NM3udiy-53" value="" style="group" parent="gqrBNzo461zK8NM3udiy-52" vertex="1" connectable="0">
          <mxGeometry width="56.00999999999999" height="33.22999999999999" as="geometry" />
        </mxCell>
        <mxCell id="gqrBNzo461zK8NM3udiy-54" value="" style="group;fillColor=none;container=0;fillStyle=dots;" parent="gqrBNzo461zK8NM3udiy-53" vertex="1" connectable="0">
          <mxGeometry width="56.01" height="33.23" as="geometry" />
        </mxCell>
        <mxCell id="gqrBNzo461zK8NM3udiy-55" value="" style="verticalLabelPosition=bottom;verticalAlign=top;html=1;shape=mxgraph.basic.arc;startAngle=0.5228132783035719;endAngle=0.931180165086578;fillStyle=auto;fillColor=#66FFB3;" parent="gqrBNzo461zK8NM3udiy-53" vertex="1">
          <mxGeometry y="10.029958878139894" width="23.170383608225663" height="23.16066798628343" as="geometry" />
        </mxCell>
        <mxCell id="gqrBNzo461zK8NM3udiy-56" value="" style="verticalLabelPosition=bottom;verticalAlign=top;html=1;shape=mxgraph.basic.arc;startAngle=0.7768001258780505;endAngle=0.08146438747349113;" parent="gqrBNzo461zK8NM3udiy-53" vertex="1">
          <mxGeometry x="6.389999999999986" y="1.8200000000000216" width="25.11" height="23.16" as="geometry" />
        </mxCell>
        <mxCell id="gqrBNzo461zK8NM3udiy-57" value="" style="verticalLabelPosition=bottom;verticalAlign=top;html=1;shape=mxgraph.basic.arc;startAngle=0.8805625920328525;endAngle=0.23557103081184777;fillColor=#97D077;" parent="gqrBNzo461zK8NM3udiy-53" vertex="1">
          <mxGeometry x="20.981709172592673" width="23.170383608225663" height="23.16066798628343" as="geometry" />
        </mxCell>
        <mxCell id="gqrBNzo461zK8NM3udiy-58" value="" style="verticalLabelPosition=bottom;verticalAlign=top;html=1;shape=mxgraph.basic.arc;startAngle=0.9911671385559326;endAngle=0.5054236362483322;" parent="gqrBNzo461zK8NM3udiy-53" vertex="1">
          <mxGeometry x="32.839616391774314" y="10.03019048481977" width="23.170383608225663" height="23.16066798628343" as="geometry" />
        </mxCell>
        <mxCell id="gqrBNzo461zK8NM3udiy-59" value="" style="endArrow=none;html=1;rounded=0;" parent="gqrBNzo461zK8NM3udiy-53" edge="1">
          <mxGeometry width="50" height="50" relative="1" as="geometry">
            <mxPoint x="9.863875299403048" y="33.150000000000034" as="sourcePoint" />
            <mxPoint x="44.156043039577014" y="33.150000000000034" as="targetPoint" />
          </mxGeometry>
        </mxCell>
        <mxCell id="gqrBNzo461zK8NM3udiy-60" value="" style="group" parent="gqrBNzo461zK8NM3udiy-52" vertex="1" connectable="0">
          <mxGeometry x="8.740000000000009" y="7.755000000000109" width="39.37500000000017" height="22.93199999999996" as="geometry" />
        </mxCell>
        <mxCell id="gqrBNzo461zK8NM3udiy-61" value="" style="ellipse;whiteSpace=wrap;html=1;fillStyle=auto;strokeColor=none;align=center;verticalAlign=middle;fontFamily=Helvetica;fontSize=12;fontColor=default;fillColor=#999999;" parent="gqrBNzo461zK8NM3udiy-60" vertex="1">
          <mxGeometry y="10.784999999999968" width="3.95" height="4.09" as="geometry" />
        </mxCell>
        <mxCell id="gqrBNzo461zK8NM3udiy-62" value="" style="ellipse;whiteSpace=wrap;html=1;fillStyle=auto;strokeColor=none;align=center;verticalAlign=middle;fontFamily=Helvetica;fontSize=12;fontColor=default;fillColor=#999999;" parent="gqrBNzo461zK8NM3udiy-60" vertex="1">
          <mxGeometry x="7.867000000000019" y="18.841999999999985" width="3.95" height="4.09" as="geometry" />
        </mxCell>
        <mxCell id="gqrBNzo461zK8NM3udiy-63" value="" style="ellipse;whiteSpace=wrap;html=1;fillStyle=auto;strokeColor=none;align=center;verticalAlign=middle;fontFamily=Helvetica;fontSize=12;fontColor=default;fillColor=#999999;" parent="gqrBNzo461zK8NM3udiy-60" vertex="1">
          <mxGeometry x="15.744000000000085" y="7.868999999999971" width="3.95" height="4.09" as="geometry" />
        </mxCell>
        <mxCell id="gqrBNzo461zK8NM3udiy-64" value="" style="ellipse;whiteSpace=wrap;html=1;fillStyle=auto;strokeColor=none;align=center;verticalAlign=middle;fontFamily=Helvetica;fontSize=12;fontColor=default;fillColor=#999999;" parent="gqrBNzo461zK8NM3udiy-60" vertex="1">
          <mxGeometry x="23.62100000000015" y="14.875999999999976" width="3.95" height="4.09" as="geometry" />
        </mxCell>
        <mxCell id="gqrBNzo461zK8NM3udiy-65" value="" style="ellipse;whiteSpace=wrap;html=1;fillStyle=auto;strokeColor=none;align=center;verticalAlign=middle;fontFamily=Helvetica;fontSize=12;fontColor=default;fillColor=#999999;" parent="gqrBNzo461zK8NM3udiy-60" vertex="1">
          <mxGeometry x="27.568000000000154" y="3.782999999999987" width="3.95" height="4.09" as="geometry" />
        </mxCell>
        <mxCell id="gqrBNzo461zK8NM3udiy-66" value="" style="ellipse;whiteSpace=wrap;html=1;fillStyle=auto;strokeColor=none;align=center;verticalAlign=middle;fontFamily=Helvetica;fontSize=12;fontColor=default;fillColor=#999999;" parent="gqrBNzo461zK8NM3udiy-60" vertex="1">
          <mxGeometry x="7.865000000000123" width="3.95" height="4.09" as="geometry" />
        </mxCell>
        <mxCell id="gqrBNzo461zK8NM3udiy-67" value="" style="ellipse;whiteSpace=wrap;html=1;fillStyle=auto;strokeColor=none;align=center;verticalAlign=middle;fontFamily=Helvetica;fontSize=12;fontColor=default;fillColor=#999999;" parent="gqrBNzo461zK8NM3udiy-60" vertex="1">
          <mxGeometry x="35.425000000000125" y="11.95999999999998" width="3.95" height="4.09" as="geometry" />
        </mxCell>
        <mxCell id="gqrBNzo461zK8NM3udiy-68" value="" style="endArrow=classic;html=1;rounded=1;fontFamily=Helvetica;fontSize=12;fontColor=default;curved=0;" parent="1" edge="1">
          <mxGeometry width="50" height="50" relative="1" as="geometry">
            <mxPoint x="992.8870000000001" y="484.557" as="sourcePoint" />
            <mxPoint x="1047.8870000000002" y="543.557" as="targetPoint" />
            <Array as="points">
              <mxPoint x="1031.8870000000002" y="488.557" />
              <mxPoint x="1043.8870000000002" y="492.557" />
              <mxPoint x="1047.8870000000002" y="503.557" />
            </Array>
          </mxGeometry>
        </mxCell>
        <mxCell id="gqrBNzo461zK8NM3udiy-69" value="sale" style="text;html=1;align=center;verticalAlign=middle;resizable=0;points=[];autosize=1;strokeColor=none;fillColor=none;fontFamily=Helvetica;fontSize=12;fontColor=default;" parent="1" vertex="1">
          <mxGeometry x="951.194" y="468.50700000000006" width="43.306999999999995" height="27.558999999999997" as="geometry" />
        </mxCell>
        <mxCell id="gqrBNzo461zK8NM3udiy-70" value="" style="endArrow=classic;html=1;rounded=1;fontFamily=Helvetica;fontSize=12;fontColor=default;curved=0;" parent="1" edge="1">
          <mxGeometry width="50" height="50" relative="1" as="geometry">
            <mxPoint x="1102.817" y="455.8070000000001" as="sourcePoint" />
            <mxPoint x="1070.864" y="529.884" as="targetPoint" />
            <Array as="points">
              <mxPoint x="1070.864" y="477.884" />
            </Array>
          </mxGeometry>
        </mxCell>
        <mxCell id="gqrBNzo461zK8NM3udiy-71" value="Zucchero" style="text;html=1;align=center;verticalAlign=middle;resizable=0;points=[];autosize=1;strokeColor=none;fillColor=none;fontFamily=Helvetica;fontSize=12;fontColor=default;" parent="1" vertex="1">
          <mxGeometry x="1076.1109999999999" y="435.784" width="70.866" height="27.558999999999997" as="geometry" />
        </mxCell>
        <mxCell id="gqrBNzo461zK8NM3udiy-72" value="" style="endArrow=classic;html=1;rounded=1;fontFamily=Helvetica;fontSize=12;fontColor=default;curved=0;" parent="1" edge="1">
          <mxGeometry width="50" height="50" relative="1" as="geometry">
            <mxPoint x="1137.677" y="463.34700000000004" as="sourcePoint" />
            <mxPoint x="1082.907" y="534.8670000000001" as="targetPoint" />
            <Array as="points">
              <mxPoint x="1082.677" y="487.347" />
              <mxPoint x="1082.907" y="510.86699999999996" />
            </Array>
          </mxGeometry>
        </mxCell>
        <mxCell id="gqrBNzo461zK8NM3udiy-73" value="Miele" style="text;html=1;align=center;verticalAlign=middle;resizable=0;points=[];autosize=1;strokeColor=none;fillColor=none;fontFamily=Helvetica;fontSize=12;fontColor=default;" parent="1" vertex="1">
          <mxGeometry x="1126.978" y="449.951" width="51.181" height="27.558999999999997" as="geometry" />
        </mxCell>
        <mxCell id="gqrBNzo461zK8NM3udiy-81" value="" style="group" parent="1" vertex="1" connectable="0">
          <mxGeometry x="1133.247" y="463.3469999999999" width="69.76999999999998" height="70.88999999999999" as="geometry" />
        </mxCell>
        <mxCell id="gqrBNzo461zK8NM3udiy-82" value="" style="verticalLabelPosition=bottom;verticalAlign=top;html=1;shape=mxgraph.basic.arc;startAngle=0.2547732166712652;endAngle=0.7452267833287348;fillStyle=dots;strokeColor=default;align=center;fontFamily=Helvetica;fontSize=12;fontColor=default;fillColor=#FF0000;" parent="gqrBNzo461zK8NM3udiy-81" vertex="1">
          <mxGeometry width="69.77" height="70.89" as="geometry" />
        </mxCell>
        <mxCell id="gqrBNzo461zK8NM3udiy-83" value="" style="ellipse;whiteSpace=wrap;html=1;aspect=fixed;fillStyle=auto;strokeColor=default;align=center;verticalAlign=middle;fontFamily=Helvetica;fontSize=12;fontColor=default;fillColor=#FF0000;" parent="gqrBNzo461zK8NM3udiy-81" vertex="1">
          <mxGeometry x="19.16999999999996" y="40.42000000000007" width="9.81" height="9.81" as="geometry" />
        </mxCell>
        <mxCell id="gqrBNzo461zK8NM3udiy-84" value="" style="ellipse;whiteSpace=wrap;html=1;aspect=fixed;fillStyle=auto;strokeColor=default;align=center;verticalAlign=middle;fontFamily=Helvetica;fontSize=12;fontColor=default;fillColor=#FF0000;" parent="gqrBNzo461zK8NM3udiy-81" vertex="1">
          <mxGeometry x="40.789999999999964" y="34.48000000000002" width="9.81" height="9.81" as="geometry" />
        </mxCell>
        <mxCell id="gqrBNzo461zK8NM3udiy-85" value="tuorli&lt;div&gt;&lt;br&gt;&lt;/div&gt;&lt;div&gt;&lt;br&gt;&lt;/div&gt;" style="verticalLabelPosition=middle;verticalAlign=middle;html=1;shape=mxgraph.basic.arc;startAngle=0.2547732166712652;endAngle=0.7452267833287348;fillStyle=dots;strokeColor=default;align=center;fontFamily=Helvetica;fontSize=12;fontColor=default;fillColor=#FF0000;labelPosition=center;" parent="gqrBNzo461zK8NM3udiy-81" vertex="1">
          <mxGeometry x="3.94" y="5.92" width="62.99" height="61.01" as="geometry" />
        </mxCell>
        <mxCell id="gqrBNzo461zK8NM3udiy-86" value="" style="ellipse;whiteSpace=wrap;html=1;aspect=fixed;fillStyle=auto;strokeColor=default;align=center;verticalAlign=middle;fontFamily=Helvetica;fontSize=12;fontColor=default;fillColor=#FF0000;" parent="gqrBNzo461zK8NM3udiy-81" vertex="1">
          <mxGeometry x="32.42700000000002" y="50.22700000000009" width="9.81" height="9.81" as="geometry" />
        </mxCell>
        <mxCell id="gqrBNzo461zK8NM3udiy-87" value="" style="endArrow=classic;html=1;rounded=1;fontFamily=Helvetica;fontSize=12;fontColor=default;curved=0;" parent="1" edge="1">
          <mxGeometry width="50" height="50" relative="1" as="geometry">
            <mxPoint x="1130.831" y="498.27399999999994" as="sourcePoint" />
            <mxPoint x="1089.8339999999998" y="544.381" as="targetPoint" />
            <Array as="points">
              <mxPoint x="1094.831" y="502.27399999999994" />
            </Array>
          </mxGeometry>
        </mxCell>
        <mxCell id="gqrBNzo461zK8NM3udiy-88" value="" style="group" parent="1" vertex="1" connectable="0">
          <mxGeometry x="1079.0639999999999" y="629.788" width="98.33200000000016" height="49.119000000000085" as="geometry" />
        </mxCell>
        <mxCell id="gqrBNzo461zK8NM3udiy-89" value="" style="rounded=1;whiteSpace=wrap;html=1;fillStyle=auto;strokeColor=default;align=center;verticalAlign=middle;fontFamily=Helvetica;fontSize=12;fontColor=default;fillColor=#FFFFFF;gradientColor=none;" parent="gqrBNzo461zK8NM3udiy-88" vertex="1">
          <mxGeometry x="7.763999999999669" width="19.69" height="3.94" as="geometry" />
        </mxCell>
        <mxCell id="gqrBNzo461zK8NM3udiy-90" value="Frusta&amp;nbsp;&lt;div&gt;Gancio&lt;/div&gt;&lt;div&gt;~15min&lt;/div&gt;" style="text;html=1;align=center;verticalAlign=middle;resizable=0;points=[];autosize=1;strokeColor=none;fillColor=none;fontFamily=Helvetica;fontSize=12;fontColor=default;" parent="gqrBNzo461zK8NM3udiy-88" vertex="1">
          <mxGeometry x="21.501999999999725" y="-5.99899999999991" width="62.992" height="55.117999999999995" as="geometry" />
        </mxCell>
        <mxCell id="gqrBNzo461zK8NM3udiy-91" value="" style="endArrow=none;html=1;rounded=1;fontFamily=Helvetica;fontSize=12;fontColor=default;curved=0;strokeWidth=3.1496;" parent="gqrBNzo461zK8NM3udiy-88" edge="1">
          <mxGeometry width="50" height="50" relative="1" as="geometry">
            <mxPoint x="24" y="39.266000000000076" as="sourcePoint" />
            <mxPoint x="18" y="4.266000000000076" as="targetPoint" />
            <Array as="points">
              <mxPoint x="18" y="47.266000000000076" />
              <mxPoint y="19.266000000000076" />
              <mxPoint x="8" y="12.266000000000076" />
              <mxPoint x="18" y="12.266000000000076" />
            </Array>
          </mxGeometry>
        </mxCell>
        <mxCell id="gqrBNzo461zK8NM3udiy-92" value="" style="ellipse;whiteSpace=wrap;html=1;aspect=fixed;fillStyle=auto;strokeColor=default;align=center;verticalAlign=middle;fontFamily=Helvetica;fontSize=12;fontColor=default;fillColor=#FFFFFF;" parent="gqrBNzo461zK8NM3udiy-88" vertex="1">
          <mxGeometry x="19.823999999999614" y="35.40999999999997" width="7.87" height="7.87" as="geometry" />
        </mxCell>
        <mxCell id="gqrBNzo461zK8NM3udiy-93" value="" style="endArrow=classic;html=1;rounded=1;fontFamily=Helvetica;fontSize=12;fontColor=default;curved=0;" parent="1" edge="1">
          <mxGeometry width="50" height="50" relative="1" as="geometry">
            <mxPoint x="1055.791" y="606.3210000000001" as="sourcePoint" />
            <mxPoint x="1055" y="740" as="targetPoint" />
            <Array as="points">
              <mxPoint x="1055.529" y="606.299" />
            </Array>
          </mxGeometry>
        </mxCell>
        <mxCell id="gqrBNzo461zK8NM3udiy-94" value="" style="edgeLabel;html=1;align=center;verticalAlign=middle;resizable=0;points=[];fillStyle=dots;strokeColor=default;fontFamily=Helvetica;fontSize=12;fontColor=default;fillColor=#FF0000;" parent="gqrBNzo461zK8NM3udiy-93" vertex="1" connectable="0">
          <mxGeometry x="0.7016" relative="1" as="geometry">
            <mxPoint as="offset" />
          </mxGeometry>
        </mxCell>
        <mxCell id="gqrBNzo461zK8NM3udiy-96" value="" style="group" parent="1" vertex="1" connectable="0">
          <mxGeometry x="1015.7449999999999" y="748.025" width="95" height="51" as="geometry" />
        </mxCell>
        <mxCell id="gqrBNzo461zK8NM3udiy-97" value="" style="group" parent="gqrBNzo461zK8NM3udiy-96" vertex="1" connectable="0">
          <mxGeometry width="95" height="51" as="geometry" />
        </mxCell>
        <mxCell id="gqrBNzo461zK8NM3udiy-98" value="" style="endArrow=none;html=1;rounded=1;shadow=0;curved=0;strokeWidth=1.1811;" parent="gqrBNzo461zK8NM3udiy-97" edge="1">
          <mxGeometry width="50" height="50" relative="1" as="geometry">
            <mxPoint x="95" as="sourcePoint" />
            <mxPoint as="targetPoint" />
            <Array as="points">
              <mxPoint x="95" y="51" />
              <mxPoint x="48" y="51" />
              <mxPoint y="51" />
            </Array>
          </mxGeometry>
        </mxCell>
        <mxCell id="gqrBNzo461zK8NM3udiy-99" value="" style="endArrow=none;html=1;rounded=1;shadow=0;curved=0;strokeWidth=1.1811;" parent="gqrBNzo461zK8NM3udiy-97" edge="1">
          <mxGeometry width="50" height="50" relative="1" as="geometry">
            <mxPoint x="91" as="sourcePoint" />
            <mxPoint x="4" as="targetPoint" />
            <Array as="points">
              <mxPoint x="91" y="47" />
              <mxPoint x="4" y="47" />
            </Array>
          </mxGeometry>
        </mxCell>
        <mxCell id="gqrBNzo461zK8NM3udiy-100" value="" style="group" parent="gqrBNzo461zK8NM3udiy-96" vertex="1" connectable="0">
          <mxGeometry x="19.682999999999993" y="3.9429999999999836" width="56.00999999999999" height="33.22999999999996" as="geometry" />
        </mxCell>
        <mxCell id="gqrBNzo461zK8NM3udiy-101" value="" style="group" parent="gqrBNzo461zK8NM3udiy-100" vertex="1" connectable="0">
          <mxGeometry width="56.00999999999999" height="33.22999999999999" as="geometry" />
        </mxCell>
        <mxCell id="gqrBNzo461zK8NM3udiy-102" value="" style="group;fillColor=none;container=0;fillStyle=dots;" parent="gqrBNzo461zK8NM3udiy-101" vertex="1" connectable="0">
          <mxGeometry width="56.01" height="33.23" as="geometry" />
        </mxCell>
        <mxCell id="gqrBNzo461zK8NM3udiy-103" value="" style="verticalLabelPosition=bottom;verticalAlign=top;html=1;shape=mxgraph.basic.arc;startAngle=0.5228132783035719;endAngle=0.931180165086578;fillStyle=auto;fillColor=#66FFB3;" parent="gqrBNzo461zK8NM3udiy-101" vertex="1">
          <mxGeometry y="10.029958878139894" width="23.170383608225663" height="23.16066798628343" as="geometry" />
        </mxCell>
        <mxCell id="gqrBNzo461zK8NM3udiy-104" value="" style="verticalLabelPosition=bottom;verticalAlign=top;html=1;shape=mxgraph.basic.arc;startAngle=0.7768001258780505;endAngle=0.08146438747349113;" parent="gqrBNzo461zK8NM3udiy-101" vertex="1">
          <mxGeometry x="6.389999999999986" y="1.8200000000000216" width="25.11" height="23.16" as="geometry" />
        </mxCell>
        <mxCell id="gqrBNzo461zK8NM3udiy-105" value="" style="verticalLabelPosition=bottom;verticalAlign=top;html=1;shape=mxgraph.basic.arc;startAngle=0.8805625920328525;endAngle=0.23557103081184777;fillColor=#97D077;" parent="gqrBNzo461zK8NM3udiy-101" vertex="1">
          <mxGeometry x="20.981709172592673" width="23.170383608225663" height="23.16066798628343" as="geometry" />
        </mxCell>
        <mxCell id="gqrBNzo461zK8NM3udiy-106" value="" style="verticalLabelPosition=bottom;verticalAlign=top;html=1;shape=mxgraph.basic.arc;startAngle=0.9911671385559326;endAngle=0.5054236362483322;" parent="gqrBNzo461zK8NM3udiy-101" vertex="1">
          <mxGeometry x="32.839616391774314" y="10.03019048481977" width="23.170383608225663" height="23.16066798628343" as="geometry" />
        </mxCell>
        <mxCell id="gqrBNzo461zK8NM3udiy-107" value="" style="endArrow=none;html=1;rounded=0;" parent="gqrBNzo461zK8NM3udiy-101" edge="1">
          <mxGeometry width="50" height="50" relative="1" as="geometry">
            <mxPoint x="9.863875299403048" y="33.150000000000034" as="sourcePoint" />
            <mxPoint x="44.156043039577014" y="33.150000000000034" as="targetPoint" />
          </mxGeometry>
        </mxCell>
        <mxCell id="gqrBNzo461zK8NM3udiy-108" value="" style="group" parent="gqrBNzo461zK8NM3udiy-100" vertex="1" connectable="0">
          <mxGeometry x="8.740000000000009" y="7.755000000000109" width="39.37500000000017" height="22.93199999999996" as="geometry" />
        </mxCell>
        <mxCell id="gqrBNzo461zK8NM3udiy-109" value="" style="ellipse;whiteSpace=wrap;html=1;fillStyle=auto;strokeColor=none;align=center;verticalAlign=middle;fontFamily=Helvetica;fontSize=12;fontColor=default;fillColor=#999999;" parent="gqrBNzo461zK8NM3udiy-108" vertex="1">
          <mxGeometry y="10.784999999999968" width="3.95" height="4.09" as="geometry" />
        </mxCell>
        <mxCell id="gqrBNzo461zK8NM3udiy-110" value="" style="ellipse;whiteSpace=wrap;html=1;fillStyle=auto;strokeColor=none;align=center;verticalAlign=middle;fontFamily=Helvetica;fontSize=12;fontColor=default;fillColor=#999999;" parent="gqrBNzo461zK8NM3udiy-108" vertex="1">
          <mxGeometry x="7.867000000000019" y="18.841999999999985" width="3.95" height="4.09" as="geometry" />
        </mxCell>
        <mxCell id="gqrBNzo461zK8NM3udiy-111" value="" style="ellipse;whiteSpace=wrap;html=1;fillStyle=auto;strokeColor=none;align=center;verticalAlign=middle;fontFamily=Helvetica;fontSize=12;fontColor=default;fillColor=#999999;" parent="gqrBNzo461zK8NM3udiy-108" vertex="1">
          <mxGeometry x="15.744000000000085" y="7.868999999999971" width="3.95" height="4.09" as="geometry" />
        </mxCell>
        <mxCell id="gqrBNzo461zK8NM3udiy-112" value="" style="ellipse;whiteSpace=wrap;html=1;fillStyle=auto;strokeColor=none;align=center;verticalAlign=middle;fontFamily=Helvetica;fontSize=12;fontColor=default;fillColor=#999999;" parent="gqrBNzo461zK8NM3udiy-108" vertex="1">
          <mxGeometry x="23.62100000000015" y="14.875999999999976" width="3.95" height="4.09" as="geometry" />
        </mxCell>
        <mxCell id="gqrBNzo461zK8NM3udiy-113" value="" style="ellipse;whiteSpace=wrap;html=1;fillStyle=auto;strokeColor=none;align=center;verticalAlign=middle;fontFamily=Helvetica;fontSize=12;fontColor=default;fillColor=#999999;" parent="gqrBNzo461zK8NM3udiy-108" vertex="1">
          <mxGeometry x="27.568000000000154" y="3.782999999999987" width="3.95" height="4.09" as="geometry" />
        </mxCell>
        <mxCell id="gqrBNzo461zK8NM3udiy-114" value="" style="ellipse;whiteSpace=wrap;html=1;fillStyle=auto;strokeColor=none;align=center;verticalAlign=middle;fontFamily=Helvetica;fontSize=12;fontColor=default;fillColor=#999999;" parent="gqrBNzo461zK8NM3udiy-108" vertex="1">
          <mxGeometry x="7.865000000000123" width="3.95" height="4.09" as="geometry" />
        </mxCell>
        <mxCell id="gqrBNzo461zK8NM3udiy-115" value="" style="ellipse;whiteSpace=wrap;html=1;fillStyle=auto;strokeColor=none;align=center;verticalAlign=middle;fontFamily=Helvetica;fontSize=12;fontColor=default;fillColor=#999999;" parent="gqrBNzo461zK8NM3udiy-108" vertex="1">
          <mxGeometry x="35.425000000000125" y="11.95999999999998" width="3.95" height="4.09" as="geometry" />
        </mxCell>
        <mxCell id="gqrBNzo461zK8NM3udiy-116" value="burro&#xa;a pomata&#xa;&#xa;&#xa;" style="group;labelPosition=center;verticalLabelPosition=middle;align=center;verticalAlign=middle;labelBorderColor=none;" parent="1" vertex="1" connectable="0">
          <mxGeometry x="921.261" y="648.7010000000001" width="89.24" height="94.44" as="geometry" />
        </mxCell>
        <mxCell id="gqrBNzo461zK8NM3udiy-117" value="" style="verticalLabelPosition=bottom;verticalAlign=top;html=1;shape=mxgraph.basic.arc;startAngle=0.2547732166712652;endAngle=0.7452267833287348;fillStyle=dots;strokeColor=default;align=center;fontFamily=Helvetica;fontSize=12;fontColor=default;fillColor=#FF0000;" parent="gqrBNzo461zK8NM3udiy-116" vertex="1">
          <mxGeometry x="11.11" y="11.75" width="67.02" height="70.93" as="geometry" />
        </mxCell>
        <mxCell id="gqrBNzo461zK8NM3udiy-118" value="" style="verticalLabelPosition=bottom;verticalAlign=top;html=1;shape=mxgraph.basic.arc;startAngle=0.2547732166712652;endAngle=0.7452267833287348;fillStyle=dots;strokeColor=default;align=center;fontFamily=Helvetica;fontSize=12;fontColor=default;fillColor=#FF0000;" parent="gqrBNzo461zK8NM3udiy-116" vertex="1">
          <mxGeometry x="14.44" y="15.75" width="60.37" height="62.94" as="geometry" />
        </mxCell>
        <mxCell id="gqrBNzo461zK8NM3udiy-119" value="" style="rounded=1;whiteSpace=wrap;html=1;fillStyle=auto;strokeColor=default;align=center;verticalAlign=middle;fontFamily=Helvetica;fontSize=12;fontColor=default;fillColor=#E6E6E6;rotation=15;" parent="gqrBNzo461zK8NM3udiy-116" vertex="1">
          <mxGeometry x="47.06300000000005" y="55.11299999999982" width="14.79" height="10.85" as="geometry" />
        </mxCell>
        <mxCell id="gqrBNzo461zK8NM3udiy-120" value="" style="rounded=1;whiteSpace=wrap;html=1;fillStyle=auto;strokeColor=default;align=center;verticalAlign=middle;fontFamily=Helvetica;fontSize=12;fontColor=default;fillColor=#E6E6E6;rotation=-15;" parent="gqrBNzo461zK8NM3udiy-116" vertex="1">
          <mxGeometry x="27.38299999999999" y="55.112999999999936" width="13.86" height="10.86" as="geometry" />
        </mxCell>
        <mxCell id="gqrBNzo461zK8NM3udiy-121" value="" style="endArrow=classic;html=1;rounded=1;fontFamily=Helvetica;fontSize=12;fontColor=default;curved=0;" parent="1" edge="1">
          <mxGeometry width="50" height="50" relative="1" as="geometry">
            <mxPoint x="997.957" y="701.467" as="sourcePoint" />
            <mxPoint x="1038.954" y="747.574" as="targetPoint" />
            <Array as="points">
              <mxPoint x="1033.9569999999999" y="705.467" />
            </Array>
          </mxGeometry>
        </mxCell>
        <mxCell id="gqrBNzo461zK8NM3udiy-123" value="Acqua" style="text;html=1;align=center;verticalAlign=middle;resizable=0;points=[];autosize=1;strokeColor=none;fillColor=none;fontFamily=Helvetica;fontSize=12;fontColor=default;" parent="1" vertex="1">
          <mxGeometry x="1110.748" y="692.9209999999999" width="55.117999999999995" height="27.558999999999997" as="geometry" />
        </mxCell>
        <mxCell id="gqrBNzo461zK8NM3udiy-122" value="" style="endArrow=classic;html=1;rounded=1;fontFamily=Helvetica;fontSize=12;fontColor=default;curved=0;" parent="1" edge="1">
          <mxGeometry width="50" height="50" relative="1" as="geometry">
            <mxPoint x="1114.19" y="705.03" as="sourcePoint" />
            <mxPoint x="1071.19" y="748.03" as="targetPoint" />
            <Array as="points">
              <mxPoint x="1070.867" y="705.067" />
              <mxPoint x="1071.097" y="728.587" />
            </Array>
          </mxGeometry>
        </mxCell>
        <mxCell id="gqrBNzo461zK8NM3udiy-127" value="" style="group" parent="1" vertex="1" connectable="0">
          <mxGeometry x="1019.685" y="551.185" width="95" height="51" as="geometry" />
        </mxCell>
        <mxCell id="gqrBNzo461zK8NM3udiy-128" value="" style="group" parent="gqrBNzo461zK8NM3udiy-127" vertex="1" connectable="0">
          <mxGeometry width="95" height="51" as="geometry" />
        </mxCell>
        <mxCell id="gqrBNzo461zK8NM3udiy-129" value="" style="endArrow=none;html=1;rounded=1;shadow=0;curved=0;strokeWidth=1.1811;" parent="gqrBNzo461zK8NM3udiy-128" edge="1">
          <mxGeometry width="50" height="50" relative="1" as="geometry">
            <mxPoint x="95" as="sourcePoint" />
            <mxPoint as="targetPoint" />
            <Array as="points">
              <mxPoint x="95" y="51" />
              <mxPoint x="48" y="51" />
              <mxPoint y="51" />
            </Array>
          </mxGeometry>
        </mxCell>
        <mxCell id="gqrBNzo461zK8NM3udiy-130" value="" style="endArrow=none;html=1;rounded=1;shadow=0;curved=0;strokeWidth=1.1811;" parent="gqrBNzo461zK8NM3udiy-128" edge="1">
          <mxGeometry width="50" height="50" relative="1" as="geometry">
            <mxPoint x="91" as="sourcePoint" />
            <mxPoint x="4" as="targetPoint" />
            <Array as="points">
              <mxPoint x="91" y="47" />
              <mxPoint x="4" y="47" />
            </Array>
          </mxGeometry>
        </mxCell>
        <mxCell id="gqrBNzo461zK8NM3udiy-131" value="" style="group" parent="gqrBNzo461zK8NM3udiy-127" vertex="1" connectable="0">
          <mxGeometry x="19.682999999999993" y="3.9429999999999836" width="56.00999999999999" height="33.22999999999996" as="geometry" />
        </mxCell>
        <mxCell id="gqrBNzo461zK8NM3udiy-132" value="" style="group" parent="gqrBNzo461zK8NM3udiy-131" vertex="1" connectable="0">
          <mxGeometry width="56.00999999999999" height="33.22999999999999" as="geometry" />
        </mxCell>
        <mxCell id="gqrBNzo461zK8NM3udiy-133" value="" style="group;fillColor=none;container=0;fillStyle=dots;" parent="gqrBNzo461zK8NM3udiy-132" vertex="1" connectable="0">
          <mxGeometry width="56.01" height="33.23" as="geometry" />
        </mxCell>
        <mxCell id="gqrBNzo461zK8NM3udiy-134" value="" style="verticalLabelPosition=bottom;verticalAlign=top;html=1;shape=mxgraph.basic.arc;startAngle=0.5228132783035719;endAngle=0.931180165086578;fillStyle=auto;fillColor=#66FFB3;" parent="gqrBNzo461zK8NM3udiy-132" vertex="1">
          <mxGeometry y="10.029958878139894" width="23.170383608225663" height="23.16066798628343" as="geometry" />
        </mxCell>
        <mxCell id="gqrBNzo461zK8NM3udiy-135" value="" style="verticalLabelPosition=bottom;verticalAlign=top;html=1;shape=mxgraph.basic.arc;startAngle=0.7768001258780505;endAngle=0.08146438747349113;" parent="gqrBNzo461zK8NM3udiy-132" vertex="1">
          <mxGeometry x="6.389999999999986" y="1.8200000000000216" width="25.11" height="23.16" as="geometry" />
        </mxCell>
        <mxCell id="gqrBNzo461zK8NM3udiy-136" value="" style="verticalLabelPosition=bottom;verticalAlign=top;html=1;shape=mxgraph.basic.arc;startAngle=0.8805625920328525;endAngle=0.23557103081184777;fillColor=#97D077;" parent="gqrBNzo461zK8NM3udiy-132" vertex="1">
          <mxGeometry x="20.981709172592673" width="23.170383608225663" height="23.16066798628343" as="geometry" />
        </mxCell>
        <mxCell id="gqrBNzo461zK8NM3udiy-137" value="" style="verticalLabelPosition=bottom;verticalAlign=top;html=1;shape=mxgraph.basic.arc;startAngle=0.9911671385559326;endAngle=0.5054236362483322;" parent="gqrBNzo461zK8NM3udiy-132" vertex="1">
          <mxGeometry x="32.839616391774314" y="10.03019048481977" width="23.170383608225663" height="23.16066798628343" as="geometry" />
        </mxCell>
        <mxCell id="gqrBNzo461zK8NM3udiy-138" value="" style="endArrow=none;html=1;rounded=0;" parent="gqrBNzo461zK8NM3udiy-132" edge="1">
          <mxGeometry width="50" height="50" relative="1" as="geometry">
            <mxPoint x="9.863875299403048" y="33.150000000000034" as="sourcePoint" />
            <mxPoint x="44.156043039577014" y="33.150000000000034" as="targetPoint" />
          </mxGeometry>
        </mxCell>
        <mxCell id="gqrBNzo461zK8NM3udiy-139" value="" style="group" parent="gqrBNzo461zK8NM3udiy-131" vertex="1" connectable="0">
          <mxGeometry x="8.740000000000009" y="7.755000000000109" width="39.37500000000017" height="22.93199999999996" as="geometry" />
        </mxCell>
        <mxCell id="gqrBNzo461zK8NM3udiy-140" value="" style="ellipse;whiteSpace=wrap;html=1;fillStyle=auto;strokeColor=none;align=center;verticalAlign=middle;fontFamily=Helvetica;fontSize=12;fontColor=default;fillColor=#999999;" parent="gqrBNzo461zK8NM3udiy-139" vertex="1">
          <mxGeometry y="10.784999999999968" width="3.95" height="4.09" as="geometry" />
        </mxCell>
        <mxCell id="gqrBNzo461zK8NM3udiy-141" value="" style="ellipse;whiteSpace=wrap;html=1;fillStyle=auto;strokeColor=none;align=center;verticalAlign=middle;fontFamily=Helvetica;fontSize=12;fontColor=default;fillColor=#999999;" parent="gqrBNzo461zK8NM3udiy-139" vertex="1">
          <mxGeometry x="7.867000000000019" y="18.841999999999985" width="3.95" height="4.09" as="geometry" />
        </mxCell>
        <mxCell id="gqrBNzo461zK8NM3udiy-142" value="" style="ellipse;whiteSpace=wrap;html=1;fillStyle=auto;strokeColor=none;align=center;verticalAlign=middle;fontFamily=Helvetica;fontSize=12;fontColor=default;fillColor=#999999;" parent="gqrBNzo461zK8NM3udiy-139" vertex="1">
          <mxGeometry x="15.744000000000085" y="7.868999999999971" width="3.95" height="4.09" as="geometry" />
        </mxCell>
        <mxCell id="gqrBNzo461zK8NM3udiy-143" value="" style="ellipse;whiteSpace=wrap;html=1;fillStyle=auto;strokeColor=none;align=center;verticalAlign=middle;fontFamily=Helvetica;fontSize=12;fontColor=default;fillColor=#999999;" parent="gqrBNzo461zK8NM3udiy-139" vertex="1">
          <mxGeometry x="23.62100000000015" y="14.875999999999976" width="3.95" height="4.09" as="geometry" />
        </mxCell>
        <mxCell id="gqrBNzo461zK8NM3udiy-144" value="" style="ellipse;whiteSpace=wrap;html=1;fillStyle=auto;strokeColor=none;align=center;verticalAlign=middle;fontFamily=Helvetica;fontSize=12;fontColor=default;fillColor=#999999;" parent="gqrBNzo461zK8NM3udiy-139" vertex="1">
          <mxGeometry x="27.568000000000154" y="3.782999999999987" width="3.95" height="4.09" as="geometry" />
        </mxCell>
        <mxCell id="gqrBNzo461zK8NM3udiy-145" value="" style="ellipse;whiteSpace=wrap;html=1;fillStyle=auto;strokeColor=none;align=center;verticalAlign=middle;fontFamily=Helvetica;fontSize=12;fontColor=default;fillColor=#999999;" parent="gqrBNzo461zK8NM3udiy-139" vertex="1">
          <mxGeometry x="7.865000000000123" width="3.95" height="4.09" as="geometry" />
        </mxCell>
        <mxCell id="gqrBNzo461zK8NM3udiy-146" value="" style="ellipse;whiteSpace=wrap;html=1;fillStyle=auto;strokeColor=none;align=center;verticalAlign=middle;fontFamily=Helvetica;fontSize=12;fontColor=default;fillColor=#999999;" parent="gqrBNzo461zK8NM3udiy-139" vertex="1">
          <mxGeometry x="35.425000000000125" y="11.95999999999998" width="3.95" height="4.09" as="geometry" />
        </mxCell>
        <mxCell id="gqrBNzo461zK8NM3udiy-147" value=" mischiare a mano" style="shape=image;verticalLabelPosition=middle;labelBackgroundColor=default;verticalAlign=middle;aspect=fixed;imageAspect=0;image=data:image/svg+xml,PHN2ZyB4bWxucz0iaHR0cDovL3d3dy53My5vcmcvMjAwMC9zdmciIHk9IjBweCIgeD0iMHB4IiB2aWV3Qm94PSIwIDAgNjAgNzUiPjxnPjxwYXRoIGQ9Ik00OC45NSwzNi41M2wxLjMyLTIuMDNjMS45OC0zLjA3LDIuMjktNi44MSwuODktMTAuMTNsOC4xNy0xMi42M2MuNjEtLjk0LC44Mi0yLjA3LC41OS0zLjE3LS4yNC0xLjEtLjg5LTIuMDQtMS44My0yLjY2TDQ5Ljk5LC42OGMtLjk0LS42MS0yLjA3LS44Mi0zLjE3LS41OS0xLjEsLjI0LTIuMDQsLjg5LTIuNjUsMS44M2wtNy44NCwxMi4xMWMtMi4yMi0uMTktNC40NywuMy02LjM4LDEuNDFMMTMuMTUsMjQuNjRjLTEuNzQsMS4wMy0yLjQ1LDMuMjEtMS42NSw1LjA2LC4zMSwuNzMsLjgzLDEuMzUsMS41LDEuNzgsLjA2LC4wNCwuMTIsLjA2LC4xOCwuMUM0LjU3LDM3LjE2LDAsNDcuMTcsMCw1M2MwLDEuODgsLjczLDMuNjQsMi4wNSw0Ljk0LDEuMzEsMS4zMywzLjA3LDIuMDYsNC45NSwyLjA2SDUzYzMuODYsMCw3LTMuMTQsNy03LDAtNi42Mi00LjAyLTEyLjU3LTExLjA1LTE2LjQ3Wm0tMTkuNzctMy4wMWMuMy0uNDYsLjE3LTEuMDgtLjMtMS4zOC0uNDYtLjMtMS4wOC0uMTctMS4zOCwuMywwLDAtOS4wNywxNC4wMS05LjA4LDE0LjAyLS4zLC40NS0uNzYsLjc3LTEuMjgsLjg5LS41MywuMTEtMS4wOSwwLTEuNTQtLjI3LS45NC0uNjItMS4yMi0xLjg5LS42MS0yLjgzbDEwLjg0LTE2Ljc1Yy4yNC0uMzcsLjIxLS44Ni0uMDgtMS4yLS4yOS0uMzQtLjc3LS40NC0xLjE3LS4yNiwwLDAtOC40NSwzLjg1LTguNDgsMy44Ni0uNjUsLjMzLTEuNDEsLjI5LTIuMDItLjExLS4zMy0uMjEtLjU5LS41Mi0uNzQtLjg5LS40LS45NC0uMDUtMi4wMywuOC0yLjU0bDE2Ljc4LTkuMTljMS43My0xLDMuNzctMS4zOSw1Ljc1LTEuMSwuMzksLjA2LC43Ny0uMTIsLjk4LS40NUw0NS44NCwzLjAxYy4zMi0uNSwuODEtLjg0LDEuMzktLjk2LC41OC0uMTIsMS4xNy0uMDEsMS42NiwuMzFsOC4wOSw1LjIzYy41LC4zMiwuODQsLjgyLC45NiwxLjRzLjAxLDEuMTctLjMxLDEuNjdsLTguNDcsMTMuMDljLS4xOSwuMjktLjIxLC42Ny0uMDYsLjk4LDEuMzcsMi44MSwxLjE3LDYuMDYtLjUzLDguNjlsLTEyLjM4LDE5LjEzYy0uNiwuOTMtMS44OSwxLjItMi44MiwuNi0uOTUtLjYxLTEuMTktMS44OS0uNi0yLjgzbDYuNTktMTAuMTljLjMtLjQ2LC4xNy0xLjA4LS4zLTEuMzgtLjQ2LS4zLTEuMDgtLjE3LTEuMzgsLjNsLTkuMDgsMTQuMDNjLS42LC45Mi0xLjg5LDEuMTktMi44MSwuNi0uOTQtLjYxLTEuMjEtMS44Ni0uNi0yLjgybDkuMDgtMTQuMDNjLjMtLjQ2LC4xNy0xLjA4LS4zLTEuMzgtLjQ2LS4zLTEuMDgtLjE3LTEuMzgsLjNsLTExLjE0LDE3LjIxYy0uNTksLjkyLTEuOSwxLjIxLTIuODEsLjYxLS45NS0uNjItMS4yMi0xLjg4LS42MS0yLjgybDExLjE0LTE3LjIxWm0yMy44MiwyNC40N0g3Yy0xLjM0LDAtMi41OS0uNTItMy41NC0xLjQ3LS45NC0uOTQtMS40Ni0yLjE5LTEuNDYtMy41MywwLTUuNzksNS4zNC0xNi43MSwxNC45OS0yMS4zaDBsNS4zMS0yLjQyLTguOTgsMTMuODhjLTEuMjEsMS44Ny0uNjcsNC4zNywxLjIxLDUuNiwuNiwuMzgsMS4zLC41OSwyLC42MmwtLjE3LC4yNmMtMS4yMSwxLjg2LS42OCw0LjM2LDEuMTksNS41OCwuODksLjU5LDEuOTcsLjc5LDMuMDQsLjU2LDEuMDYtLjIzLDEuOTYtLjg2LDIuNTQtMS43NWwuMTctLjI2Yy4zMSwuNjIsLjc5LDEuMTcsMS40MSwxLjU3LC42NywuNDMsMS40MiwuNjUsMi4xOCwuNjUsLjI5LDAsLjU3LS4wMywuODYtLjA5LDEuMDctLjIyLDEuOTctLjg1LDIuNTQtMS43NWwuNTgtLjljLjMyLC42MywuOCwxLjE4LDEuNDIsMS41NywuOSwuNTgsMS45OCwuNzgsMy4wNSwuNTUsMS4wNC0uMjQsMS45Ny0uODgsMi41My0xLjc1bDkuOTgtMTUuNDFjNi40NiwzLjU0LDEwLjE0LDguODgsMTAuMTQsMTQuNzgsMCwyLjc2LTIuMjQsNS01LDVaIi8+PC9nPjx0ZXh0IGZvbnQtZmFtaWx5PSInSGVsdmV0aWNhIE5ldWUnLCBIZWx2ZXRpY2EsIEFyaWFsLVVuaWNvZGUsIEFyaWFsLCBTYW5zLXNlcmlmIiBmb250LXdlaWdodD0iYm9sZCIgZm9udC1zaXplPSI1cHgiIGZpbGw9IiMwMDAwMDAiIHk9Ijc1IiB4PSIwIj5DcmVhdGVkIGJ5IEp1aWN5IEZpc2g8L3RleHQ+PHRleHQgZm9udC1mYW1pbHk9IidIZWx2ZXRpY2EgTmV1ZScsIEhlbHZldGljYSwgQXJpYWwtVW5pY29kZSwgQXJpYWwsIFNhbnMtc2VyaWYiIGZvbnQtd2VpZ2h0PSJib2xkIiBmb250LXNpemU9IjVweCIgZmlsbD0iIzAwMDAwMCIgeT0iODAiIHg9IjAiPmZyb20gdGhlIE5vdW4gUHJvamVjdDwvdGV4dD48L3N2Zz4=;clipPath=inset(0% 0% 18.67% 0%);labelPosition=right;align=left;" parent="1" vertex="1">
          <mxGeometry x="1413.3870000000002" y="839.4870000000001" width="30.77" height="31.28" as="geometry" />
        </mxCell>
        <mxCell id="gqrBNzo461zK8NM3udiy-148" value="" style="endArrow=classic;html=1;rounded=1;fontFamily=Helvetica;fontSize=12;fontColor=default;curved=0;" parent="1" edge="1">
          <mxGeometry width="50" height="50" relative="1" as="geometry">
            <mxPoint x="1386.2839999999999" y="748.504" as="sourcePoint" />
            <mxPoint x="1354.331" y="822.581" as="targetPoint" />
            <Array as="points">
              <mxPoint x="1354.331" y="770.581" />
            </Array>
          </mxGeometry>
        </mxCell>
        <mxCell id="gqrBNzo461zK8NM3udiy-149" value="uvetta" style="text;html=1;align=center;verticalAlign=middle;resizable=0;points=[];autosize=1;strokeColor=none;fillColor=none;fontFamily=Helvetica;fontSize=12;fontColor=default;" parent="1" vertex="1">
          <mxGeometry x="1367.5779999999997" y="728.481" width="55.117999999999995" height="27.558999999999997" as="geometry" />
        </mxCell>
        <mxCell id="gqrBNzo461zK8NM3udiy-152" value="" style="endArrow=classic;html=1;rounded=1;fontFamily=Helvetica;fontSize=12;fontColor=default;curved=0;" parent="1" edge="1">
          <mxGeometry width="50" height="50" relative="1" as="geometry">
            <mxPoint x="1274.914" y="763.574" as="sourcePoint" />
            <mxPoint x="1329.914" y="822.574" as="targetPoint" />
            <Array as="points">
              <mxPoint x="1313.914" y="767.574" />
              <mxPoint x="1325.914" y="771.574" />
              <mxPoint x="1329.914" y="782.574" />
            </Array>
          </mxGeometry>
        </mxCell>
        <mxCell id="gqrBNzo461zK8NM3udiy-153" value="cubetti arancia&lt;div&gt;candita&lt;/div&gt;" style="text;html=1;align=center;verticalAlign=middle;resizable=0;points=[];autosize=1;strokeColor=none;fillColor=none;fontFamily=Helvetica;fontSize=12;fontColor=default;" parent="1" vertex="1">
          <mxGeometry x="1206.221" y="739.524" width="98.425" height="43.306999999999995" as="geometry" />
        </mxCell>
        <mxCell id="gqrBNzo461zK8NM3udiy-154" value="" style="endArrow=classic;html=1;rounded=1;fontFamily=Helvetica;fontSize=12;fontColor=default;curved=0;" parent="1" edge="1">
          <mxGeometry width="50" height="50" relative="1" as="geometry">
            <mxPoint x="1342" y="731.65" as="sourcePoint" />
            <mxPoint x="1342.187" y="808.587" as="targetPoint" />
            <Array as="points" />
          </mxGeometry>
        </mxCell>
        <mxCell id="gqrBNzo461zK8NM3udiy-155" value="" style="edgeLabel;html=1;align=center;verticalAlign=middle;resizable=0;points=[];fillStyle=dots;strokeColor=default;fontFamily=Helvetica;fontSize=12;fontColor=default;fillColor=#FF0000;" parent="gqrBNzo461zK8NM3udiy-154" vertex="1" connectable="0">
          <mxGeometry x="0.7016" relative="1" as="geometry">
            <mxPoint as="offset" />
          </mxGeometry>
        </mxCell>
        <mxCell id="gqrBNzo461zK8NM3udiy-160" value="burro&amp;nbsp;&lt;div&gt;20g&lt;/div&gt;" style="text;html=1;align=center;verticalAlign=middle;resizable=0;points=[];autosize=1;strokeColor=none;fillColor=none;fontFamily=Helvetica;fontSize=12;fontColor=default;" parent="1" vertex="1">
          <mxGeometry x="1314.4549999999997" y="692.918" width="51.181" height="43.306999999999995" as="geometry" />
        </mxCell>
        <mxCell id="gqrBNzo461zK8NM3udiy-161" value="" style="endArrow=classic;html=1;rounded=1;fontFamily=Helvetica;fontSize=12;fontColor=default;curved=0;" parent="1" edge="1">
          <mxGeometry width="50" height="50" relative="1" as="geometry">
            <mxPoint x="1055.908" y="803.1280000000002" as="sourcePoint" />
            <mxPoint x="1055.117" y="936.807" as="targetPoint" />
            <Array as="points">
              <mxPoint x="1055.646" y="803.106" />
            </Array>
          </mxGeometry>
        </mxCell>
        <mxCell id="gqrBNzo461zK8NM3udiy-162" value="" style="edgeLabel;html=1;align=center;verticalAlign=middle;resizable=0;points=[];fillStyle=dots;strokeColor=default;fontFamily=Helvetica;fontSize=12;fontColor=default;fillColor=#FF0000;" parent="gqrBNzo461zK8NM3udiy-161" vertex="1" connectable="0">
          <mxGeometry x="0.7016" relative="1" as="geometry">
            <mxPoint as="offset" />
          </mxGeometry>
        </mxCell>
        <mxCell id="gqrBNzo461zK8NM3udiy-183" value="" style="endArrow=classic;html=1;rounded=1;fontFamily=Helvetica;fontSize=12;fontColor=default;curved=0;" parent="1" edge="1">
          <mxGeometry width="50" height="50" relative="1" as="geometry">
            <mxPoint x="1291" y="854" as="sourcePoint" />
            <mxPoint x="1071" y="941" as="targetPoint" />
            <Array as="points">
              <mxPoint x="1291" y="854" />
              <mxPoint x="1106" y="866" />
            </Array>
          </mxGeometry>
        </mxCell>
        <mxCell id="gqrBNzo461zK8NM3udiy-184" value="" style="edgeLabel;html=1;align=center;verticalAlign=middle;resizable=0;points=[];fillStyle=dots;strokeColor=default;fontFamily=Helvetica;fontSize=12;fontColor=default;fillColor=#FF0000;" parent="gqrBNzo461zK8NM3udiy-183" vertex="1" connectable="0">
          <mxGeometry x="0.7016" relative="1" as="geometry">
            <mxPoint as="offset" />
          </mxGeometry>
        </mxCell>
        <mxCell id="gqrBNzo461zK8NM3udiy-185" value="60min&lt;br&gt;28C" style="endArrow=classic;html=1;rounded=1;fontFamily=Helvetica;fontSize=12;fontColor=default;curved=0;" parent="1" edge="1">
          <mxGeometry width="50" height="50" relative="1" as="geometry">
            <mxPoint x="1125.977" y="964.567" as="sourcePoint" />
            <mxPoint x="1263.977" y="964.567" as="targetPoint" />
            <Array as="points">
              <mxPoint x="1141.977" y="964.567" />
            </Array>
          </mxGeometry>
        </mxCell>
        <mxCell id="gqrBNzo461zK8NM3udiy-186" value="" style="edgeLabel;html=1;align=center;verticalAlign=middle;resizable=0;points=[];fillStyle=dots;strokeColor=default;fontFamily=Helvetica;fontSize=12;fontColor=default;fillColor=#FF0000;" parent="gqrBNzo461zK8NM3udiy-185" vertex="1" connectable="0">
          <mxGeometry x="0.7016" relative="1" as="geometry">
            <mxPoint as="offset" />
          </mxGeometry>
        </mxCell>
        <mxCell id="gqrBNzo461zK8NM3udiy-187" value="" style="group" parent="1" vertex="1" connectable="0">
          <mxGeometry x="1551.1810000000003" y="940.941" width="95" height="60.63999999999999" as="geometry" />
        </mxCell>
        <mxCell id="gqrBNzo461zK8NM3udiy-188" value="" style="endArrow=none;html=1;rounded=1;shadow=0;curved=0;strokeWidth=1.1811;" parent="gqrBNzo461zK8NM3udiy-187" edge="1">
          <mxGeometry width="50" height="50" relative="1" as="geometry">
            <mxPoint x="95" as="sourcePoint" />
            <mxPoint as="targetPoint" />
            <Array as="points">
              <mxPoint x="95" y="51" />
              <mxPoint x="48" y="51" />
              <mxPoint y="51" />
            </Array>
          </mxGeometry>
        </mxCell>
        <mxCell id="gqrBNzo461zK8NM3udiy-189" value="" style="endArrow=none;html=1;rounded=1;shadow=0;curved=0;strokeWidth=1.1811;" parent="gqrBNzo461zK8NM3udiy-187" edge="1">
          <mxGeometry width="50" height="50" relative="1" as="geometry">
            <mxPoint x="91" as="sourcePoint" />
            <mxPoint x="4" as="targetPoint" />
            <Array as="points">
              <mxPoint x="91" y="47" />
              <mxPoint x="4" y="47" />
            </Array>
          </mxGeometry>
        </mxCell>
        <mxCell id="gqrBNzo461zK8NM3udiy-190" value="3X" style="verticalLabelPosition=middle;verticalAlign=middle;html=1;shape=mxgraph.basic.arc;startAngle=0.625;endAngle=0.3659153113244902;fillColor=#E6E6E6;labelPosition=center;align=center;fontStyle=1" parent="gqrBNzo461zK8NM3udiy-187" vertex="1">
          <mxGeometry x="7.28" y="-23.62" width="79.34" height="78.2" as="geometry" />
        </mxCell>
        <mxCell id="gqrBNzo461zK8NM3udiy-191" value="piegature" style="shape=image;verticalLabelPosition=middle;labelBackgroundColor=default;verticalAlign=middle;aspect=fixed;imageAspect=0;image=data:image/svg+xml,PHN2ZyB4bWxucz0iaHR0cDovL3d3dy53My5vcmcvMjAwMC9zdmciIHk9IjBweCIgeD0iMHB4IiB2aWV3Qm94PSIwIDAgNjAgNzUiPjxnPjxwYXRoIGQ9Ik00OC45NSwzNi41M2wxLjMyLTIuMDNjMS45OC0zLjA3LDIuMjktNi44MSwuODktMTAuMTNsOC4xNy0xMi42M2MuNjEtLjk0LC44Mi0yLjA3LC41OS0zLjE3LS4yNC0xLjEtLjg5LTIuMDQtMS44My0yLjY2TDQ5Ljk5LC42OGMtLjk0LS42MS0yLjA3LS44Mi0zLjE3LS41OS0xLjEsLjI0LTIuMDQsLjg5LTIuNjUsMS44M2wtNy44NCwxMi4xMWMtMi4yMi0uMTktNC40NywuMy02LjM4LDEuNDFMMTMuMTUsMjQuNjRjLTEuNzQsMS4wMy0yLjQ1LDMuMjEtMS42NSw1LjA2LC4zMSwuNzMsLjgzLDEuMzUsMS41LDEuNzgsLjA2LC4wNCwuMTIsLjA2LC4xOCwuMUM0LjU3LDM3LjE2LDAsNDcuMTcsMCw1M2MwLDEuODgsLjczLDMuNjQsMi4wNSw0Ljk0LDEuMzEsMS4zMywzLjA3LDIuMDYsNC45NSwyLjA2SDUzYzMuODYsMCw3LTMuMTQsNy03LDAtNi42Mi00LjAyLTEyLjU3LTExLjA1LTE2LjQ3Wm0tMTkuNzctMy4wMWMuMy0uNDYsLjE3LTEuMDgtLjMtMS4zOC0uNDYtLjMtMS4wOC0uMTctMS4zOCwuMywwLDAtOS4wNywxNC4wMS05LjA4LDE0LjAyLS4zLC40NS0uNzYsLjc3LTEuMjgsLjg5LS41MywuMTEtMS4wOSwwLTEuNTQtLjI3LS45NC0uNjItMS4yMi0xLjg5LS42MS0yLjgzbDEwLjg0LTE2Ljc1Yy4yNC0uMzcsLjIxLS44Ni0uMDgtMS4yLS4yOS0uMzQtLjc3LS40NC0xLjE3LS4yNiwwLDAtOC40NSwzLjg1LTguNDgsMy44Ni0uNjUsLjMzLTEuNDEsLjI5LTIuMDItLjExLS4zMy0uMjEtLjU5LS41Mi0uNzQtLjg5LS40LS45NC0uMDUtMi4wMywuOC0yLjU0bDE2Ljc4LTkuMTljMS43My0xLDMuNzctMS4zOSw1Ljc1LTEuMSwuMzksLjA2LC43Ny0uMTIsLjk4LS40NUw0NS44NCwzLjAxYy4zMi0uNSwuODEtLjg0LDEuMzktLjk2LC41OC0uMTIsMS4xNy0uMDEsMS42NiwuMzFsOC4wOSw1LjIzYy41LC4zMiwuODQsLjgyLC45NiwxLjRzLjAxLDEuMTctLjMxLDEuNjdsLTguNDcsMTMuMDljLS4xOSwuMjktLjIxLC42Ny0uMDYsLjk4LDEuMzcsMi44MSwxLjE3LDYuMDYtLjUzLDguNjlsLTEyLjM4LDE5LjEzYy0uNiwuOTMtMS44OSwxLjItMi44MiwuNi0uOTUtLjYxLTEuMTktMS44OS0uNi0yLjgzbDYuNTktMTAuMTljLjMtLjQ2LC4xNy0xLjA4LS4zLTEuMzgtLjQ2LS4zLTEuMDgtLjE3LTEuMzgsLjNsLTkuMDgsMTQuMDNjLS42LC45Mi0xLjg5LDEuMTktMi44MSwuNi0uOTQtLjYxLTEuMjEtMS44Ni0uNi0yLjgybDkuMDgtMTQuMDNjLjMtLjQ2LC4xNy0xLjA4LS4zLTEuMzgtLjQ2LS4zLTEuMDgtLjE3LTEuMzgsLjNsLTExLjE0LDE3LjIxYy0uNTksLjkyLTEuOSwxLjIxLTIuODEsLjYxLS45NS0uNjItMS4yMi0xLjg4LS42MS0yLjgybDExLjE0LTE3LjIxWm0yMy44MiwyNC40N0g3Yy0xLjM0LDAtMi41OS0uNTItMy41NC0xLjQ3LS45NC0uOTQtMS40Ni0yLjE5LTEuNDYtMy41MywwLTUuNzksNS4zNC0xNi43MSwxNC45OS0yMS4zaDBsNS4zMS0yLjQyLTguOTgsMTMuODhjLTEuMjEsMS44Ny0uNjcsNC4zNywxLjIxLDUuNiwuNiwuMzgsMS4zLC41OSwyLC42MmwtLjE3LC4yNmMtMS4yMSwxLjg2LS42OCw0LjM2LDEuMTksNS41OCwuODksLjU5LDEuOTcsLjc5LDMuMDQsLjU2LDEuMDYtLjIzLDEuOTYtLjg2LDIuNTQtMS43NWwuMTctLjI2Yy4zMSwuNjIsLjc5LDEuMTcsMS40MSwxLjU3LC42NywuNDMsMS40MiwuNjUsMi4xOCwuNjUsLjI5LDAsLjU3LS4wMywuODYtLjA5LDEuMDctLjIyLDEuOTctLjg1LDIuNTQtMS43NWwuNTgtLjljLjMyLC42MywuOCwxLjE4LDEuNDIsMS41NywuOSwuNTgsMS45OCwuNzgsMy4wNSwuNTUsMS4wNC0uMjQsMS45Ny0uODgsMi41My0xLjc1bDkuOTgtMTUuNDFjNi40NiwzLjU0LDEwLjE0LDguODgsMTAuMTQsMTQuNzgsMCwyLjc2LTIuMjQsNS01LDVaIi8+PC9nPjx0ZXh0IGZvbnQtZmFtaWx5PSInSGVsdmV0aWNhIE5ldWUnLCBIZWx2ZXRpY2EsIEFyaWFsLVVuaWNvZGUsIEFyaWFsLCBTYW5zLXNlcmlmIiBmb250LXdlaWdodD0iYm9sZCIgZm9udC1zaXplPSI1cHgiIGZpbGw9IiMwMDAwMDAiIHk9Ijc1IiB4PSIwIj5DcmVhdGVkIGJ5IEp1aWN5IEZpc2g8L3RleHQ+PHRleHQgZm9udC1mYW1pbHk9IidIZWx2ZXRpY2EgTmV1ZScsIEhlbHZldGljYSwgQXJpYWwtVW5pY29kZSwgQXJpYWwsIFNhbnMtc2VyaWYiIGZvbnQtd2VpZ2h0PSJib2xkIiBmb250LXNpemU9IjVweCIgZmlsbD0iIzAwMDAwMCIgeT0iODAiIHg9IjAiPmZyb20gdGhlIE5vdW4gUHJvamVjdDwvdGV4dD48L3N2Zz4=;clipPath=inset(0% 0% 18.67% 0%);labelPosition=right;align=left;" parent="1" vertex="1">
          <mxGeometry x="1177.394" y="987.534" width="30.77" height="31.28" as="geometry" />
        </mxCell>
        <mxCell id="gqrBNzo461zK8NM3udiy-193" value="attendere&lt;div&gt;che cresca&amp;nbsp;&amp;nbsp;&lt;/div&gt;&lt;div&gt;fino al bordo&lt;/div&gt;&lt;div&gt;28C&lt;/div&gt;" style="endArrow=classic;html=1;rounded=1;fontFamily=Helvetica;fontSize=12;fontColor=default;curved=0;" parent="1" edge="1">
          <mxGeometry width="50" height="50" relative="1" as="geometry">
            <mxPoint x="1401.364" y="964.5640000000001" as="sourcePoint" />
            <mxPoint x="1539.364" y="964.5640000000001" as="targetPoint" />
            <Array as="points">
              <mxPoint x="1417.364" y="964.5640000000001" />
            </Array>
          </mxGeometry>
        </mxCell>
        <mxCell id="gqrBNzo461zK8NM3udiy-194" value="" style="edgeLabel;html=1;align=center;verticalAlign=middle;resizable=0;points=[];fillStyle=dots;strokeColor=default;fontFamily=Helvetica;fontSize=12;fontColor=default;fillColor=#FF0000;" parent="gqrBNzo461zK8NM3udiy-193" vertex="1" connectable="0">
          <mxGeometry x="0.7016" relative="1" as="geometry">
            <mxPoint as="offset" />
          </mxGeometry>
        </mxCell>
        <mxCell id="gqrBNzo461zK8NM3udiy-195" value="" style="group" parent="1" vertex="1" connectable="0">
          <mxGeometry x="1010.504" y="945.3340000000001" width="95" height="51" as="geometry" />
        </mxCell>
        <mxCell id="gqrBNzo461zK8NM3udiy-196" value="" style="endArrow=none;html=1;rounded=1;shadow=0;curved=0;strokeWidth=1.1811;" parent="gqrBNzo461zK8NM3udiy-195" edge="1">
          <mxGeometry width="50" height="50" relative="1" as="geometry">
            <mxPoint x="95" as="sourcePoint" />
            <mxPoint as="targetPoint" />
            <Array as="points">
              <mxPoint x="95" y="51" />
              <mxPoint x="48" y="51" />
              <mxPoint y="51" />
            </Array>
          </mxGeometry>
        </mxCell>
        <mxCell id="gqrBNzo461zK8NM3udiy-197" value="" style="endArrow=none;html=1;rounded=1;shadow=0;curved=0;strokeWidth=1.1811;" parent="gqrBNzo461zK8NM3udiy-195" edge="1">
          <mxGeometry width="50" height="50" relative="1" as="geometry">
            <mxPoint x="91" as="sourcePoint" />
            <mxPoint x="4" as="targetPoint" />
            <Array as="points">
              <mxPoint x="91" y="47" />
              <mxPoint x="4" y="47" />
            </Array>
          </mxGeometry>
        </mxCell>
        <mxCell id="gqrBNzo461zK8NM3udiy-198" value="" style="verticalLabelPosition=bottom;verticalAlign=top;html=1;shape=mxgraph.basic.arc;startAngle=0.625;endAngle=0.3659153113244902;fillColor=#E6E6E6;" parent="gqrBNzo461zK8NM3udiy-195" vertex="1">
          <mxGeometry x="23.09" y="-3.94" width="51.71" height="48.82" as="geometry" />
        </mxCell>
        <mxCell id="gqrBNzo461zK8NM3udiy-199" value="nel pirottino" style="group;labelPosition=center;verticalLabelPosition=bottom;align=center;verticalAlign=top;html=1;" parent="1" vertex="1" connectable="0">
          <mxGeometry x="1291.3410000000001" y="940.941" width="95" height="51" as="geometry" />
        </mxCell>
        <mxCell id="gqrBNzo461zK8NM3udiy-200" value="" style="endArrow=none;html=1;rounded=1;shadow=0;curved=0;strokeWidth=1.1811;" parent="gqrBNzo461zK8NM3udiy-199" edge="1">
          <mxGeometry width="50" height="50" relative="1" as="geometry">
            <mxPoint x="95" as="sourcePoint" />
            <mxPoint as="targetPoint" />
            <Array as="points">
              <mxPoint x="95" y="51" />
              <mxPoint x="48" y="51" />
              <mxPoint y="51" />
            </Array>
          </mxGeometry>
        </mxCell>
        <mxCell id="gqrBNzo461zK8NM3udiy-201" value="" style="endArrow=none;html=1;rounded=1;shadow=0;curved=0;strokeWidth=1.1811;" parent="gqrBNzo461zK8NM3udiy-199" edge="1">
          <mxGeometry width="50" height="50" relative="1" as="geometry">
            <mxPoint x="91" as="sourcePoint" />
            <mxPoint x="4" as="targetPoint" />
            <Array as="points">
              <mxPoint x="91" y="47" />
              <mxPoint x="4" y="47" />
            </Array>
          </mxGeometry>
        </mxCell>
        <mxCell id="gqrBNzo461zK8NM3udiy-202" value="" style="verticalLabelPosition=bottom;verticalAlign=top;html=1;shape=mxgraph.basic.arc;startAngle=0.625;endAngle=0.3659153113244902;fillColor=#E6E6E6;" parent="gqrBNzo461zK8NM3udiy-199" vertex="1">
          <mxGeometry x="23.09" y="-3.94" width="51.71" height="48.82" as="geometry" />
        </mxCell>
        <mxCell id="gqrBNzo461zK8NM3udiy-203" value="max&lt;br&gt;35/40 mins" style="shape=curlyBracket;whiteSpace=wrap;html=1;rounded=1;labelPosition=left;verticalLabelPosition=middle;align=right;verticalAlign=middle;fillStyle=dots;strokeColor=default;fontFamily=Helvetica;fontSize=12;fontColor=default;fillColor=#FF0000;" parent="1" vertex="1">
          <mxGeometry x="893.96" y="223.54" width="57.24" height="776.46" as="geometry" />
        </mxCell>
        <mxCell id="gqrBNzo461zK8NM3udiy-210" value="" style="group" parent="1" vertex="1" connectable="0">
          <mxGeometry x="952.7559999999995" y="839.4890000000001" width="80.93199999999968" height="55.11800000000005" as="geometry" />
        </mxCell>
        <mxCell id="gqrBNzo461zK8NM3udiy-205" value="" style="rounded=1;whiteSpace=wrap;html=1;fillStyle=auto;strokeColor=default;align=center;verticalAlign=middle;fontFamily=Helvetica;fontSize=12;fontColor=default;fillColor=#FFFFFF;gradientColor=none;" parent="gqrBNzo461zK8NM3udiy-210" vertex="1">
          <mxGeometry x="61.00199999999995" y="3.0289999999998827" width="19.69" height="3.94" as="geometry" />
        </mxCell>
        <mxCell id="gqrBNzo461zK8NM3udiy-206" value="Frusta&amp;nbsp;&lt;div&gt;Gancio&lt;/div&gt;&lt;div&gt;~15min&lt;/div&gt;" style="text;html=1;align=center;verticalAlign=middle;resizable=0;points=[];autosize=1;strokeColor=none;fillColor=none;fontFamily=Helvetica;fontSize=12;fontColor=default;" parent="gqrBNzo461zK8NM3udiy-210" vertex="1">
          <mxGeometry width="62.992" height="55.117999999999995" as="geometry" />
        </mxCell>
        <mxCell id="gqrBNzo461zK8NM3udiy-207" value="" style="endArrow=none;html=1;rounded=1;fontFamily=Helvetica;fontSize=12;fontColor=default;curved=0;strokeWidth=3.1496;" parent="gqrBNzo461zK8NM3udiy-210" edge="1">
          <mxGeometry width="50" height="50" relative="1" as="geometry">
            <mxPoint x="77.23800000000017" y="42.29499999999996" as="sourcePoint" />
            <mxPoint x="71.23800000000028" y="7.294999999999959" as="targetPoint" />
            <Array as="points">
              <mxPoint x="71.23800000000028" y="50.29499999999996" />
              <mxPoint x="53.238000000000284" y="22.29499999999996" />
              <mxPoint x="61.238000000000284" y="15.294999999999959" />
              <mxPoint x="71.23800000000028" y="15.294999999999959" />
            </Array>
          </mxGeometry>
        </mxCell>
        <mxCell id="gqrBNzo461zK8NM3udiy-208" value="" style="ellipse;whiteSpace=wrap;html=1;aspect=fixed;fillStyle=auto;strokeColor=default;align=center;verticalAlign=middle;fontFamily=Helvetica;fontSize=12;fontColor=default;fillColor=#FFFFFF;" parent="gqrBNzo461zK8NM3udiy-210" vertex="1">
          <mxGeometry x="73.06199999999978" y="38.43899999999985" width="7.87" height="7.87" as="geometry" />
        </mxCell>
        <mxCell id="elQQVSytI0EXZsqEakbN-1" value="" style="shape=table;startSize=0;container=1;collapsible=0;childLayout=tableLayout;" parent="1" vertex="1">
          <mxGeometry x="515.75" y="401.57" width="204.72" height="127.2869999999997" as="geometry" />
        </mxCell>
        <mxCell id="elQQVSytI0EXZsqEakbN-2" value="" style="shape=tableRow;horizontal=0;startSize=0;swimlaneHead=0;swimlaneBody=0;strokeColor=inherit;top=0;left=0;bottom=0;right=0;collapsible=0;dropTarget=0;fillColor=none;points=[[0,0.5],[1,0.5]];portConstraint=eastwest;" parent="elQQVSytI0EXZsqEakbN-1" vertex="1">
          <mxGeometry width="204.72" height="20" as="geometry" />
        </mxCell>
        <mxCell id="elQQVSytI0EXZsqEakbN-3" value="farina W280/320" style="shape=partialRectangle;html=1;whiteSpace=wrap;connectable=0;strokeColor=inherit;overflow=hidden;fillColor=none;top=0;left=0;bottom=0;right=0;pointerEvents=1;" parent="elQQVSytI0EXZsqEakbN-2" vertex="1">
          <mxGeometry width="102" height="20" as="geometry">
            <mxRectangle width="102" height="20" as="alternateBounds" />
          </mxGeometry>
        </mxCell>
        <mxCell id="elQQVSytI0EXZsqEakbN-4" value="300g" style="shape=partialRectangle;html=1;whiteSpace=wrap;connectable=0;strokeColor=inherit;overflow=hidden;fillColor=none;top=0;left=0;bottom=0;right=0;pointerEvents=1;" parent="elQQVSytI0EXZsqEakbN-2" vertex="1">
          <mxGeometry x="102" width="103" height="20" as="geometry">
            <mxRectangle width="103" height="20" as="alternateBounds" />
          </mxGeometry>
        </mxCell>
        <mxCell id="elQQVSytI0EXZsqEakbN-5" value="" style="shape=tableRow;horizontal=0;startSize=0;swimlaneHead=0;swimlaneBody=0;strokeColor=inherit;top=0;left=0;bottom=0;right=0;collapsible=0;dropTarget=0;fillColor=none;points=[[0,0.5],[1,0.5]];portConstraint=eastwest;" parent="elQQVSytI0EXZsqEakbN-1" vertex="1">
          <mxGeometry y="20" width="204.72" height="20" as="geometry" />
        </mxCell>
        <mxCell id="elQQVSytI0EXZsqEakbN-6" value="pasta madre" style="shape=partialRectangle;html=1;whiteSpace=wrap;connectable=0;strokeColor=inherit;overflow=hidden;fillColor=none;top=0;left=0;bottom=0;right=0;pointerEvents=1;" parent="elQQVSytI0EXZsqEakbN-5" vertex="1">
          <mxGeometry width="102" height="20" as="geometry">
            <mxRectangle width="102" height="20" as="alternateBounds" />
          </mxGeometry>
        </mxCell>
        <mxCell id="elQQVSytI0EXZsqEakbN-7" value="75g" style="shape=partialRectangle;html=1;whiteSpace=wrap;connectable=0;strokeColor=inherit;overflow=hidden;fillColor=none;top=0;left=0;bottom=0;right=0;pointerEvents=1;" parent="elQQVSytI0EXZsqEakbN-5" vertex="1">
          <mxGeometry x="102" width="103" height="20" as="geometry">
            <mxRectangle width="103" height="20" as="alternateBounds" />
          </mxGeometry>
        </mxCell>
        <mxCell id="elQQVSytI0EXZsqEakbN-8" value="" style="shape=tableRow;horizontal=0;startSize=0;swimlaneHead=0;swimlaneBody=0;strokeColor=inherit;top=0;left=0;bottom=0;right=0;collapsible=0;dropTarget=0;fillColor=none;points=[[0,0.5],[1,0.5]];portConstraint=eastwest;" parent="elQQVSytI0EXZsqEakbN-1" vertex="1">
          <mxGeometry y="40" width="204.72" height="20" as="geometry" />
        </mxCell>
        <mxCell id="elQQVSytI0EXZsqEakbN-9" value="zucchero" style="shape=partialRectangle;html=1;whiteSpace=wrap;connectable=0;strokeColor=inherit;overflow=hidden;fillColor=none;top=0;left=0;bottom=0;right=0;pointerEvents=1;" parent="elQQVSytI0EXZsqEakbN-8" vertex="1">
          <mxGeometry width="102" height="20" as="geometry">
            <mxRectangle width="102" height="20" as="alternateBounds" />
          </mxGeometry>
        </mxCell>
        <mxCell id="elQQVSytI0EXZsqEakbN-10" value="90g" style="shape=partialRectangle;html=1;whiteSpace=wrap;connectable=0;strokeColor=inherit;overflow=hidden;fillColor=none;top=0;left=0;bottom=0;right=0;pointerEvents=1;" parent="elQQVSytI0EXZsqEakbN-8" vertex="1">
          <mxGeometry x="102" width="103" height="20" as="geometry">
            <mxRectangle width="103" height="20" as="alternateBounds" />
          </mxGeometry>
        </mxCell>
        <mxCell id="elQQVSytI0EXZsqEakbN-11" value="" style="shape=tableRow;horizontal=0;startSize=0;swimlaneHead=0;swimlaneBody=0;strokeColor=inherit;top=0;left=0;bottom=0;right=0;collapsible=0;dropTarget=0;fillColor=none;points=[[0,0.5],[1,0.5]];portConstraint=eastwest;" parent="elQQVSytI0EXZsqEakbN-1" vertex="1">
          <mxGeometry y="60" width="204.72" height="23" as="geometry" />
        </mxCell>
        <mxCell id="elQQVSytI0EXZsqEakbN-12" value="burro" style="shape=partialRectangle;html=1;whiteSpace=wrap;connectable=0;strokeColor=inherit;overflow=hidden;fillColor=none;top=0;left=0;bottom=0;right=0;pointerEvents=1;" parent="elQQVSytI0EXZsqEakbN-11" vertex="1">
          <mxGeometry width="102" height="23" as="geometry">
            <mxRectangle width="102" height="23" as="alternateBounds" />
          </mxGeometry>
        </mxCell>
        <mxCell id="elQQVSytI0EXZsqEakbN-13" value="75g" style="shape=partialRectangle;html=1;whiteSpace=wrap;connectable=0;strokeColor=inherit;overflow=hidden;fillColor=none;top=0;left=0;bottom=0;right=0;pointerEvents=1;" parent="elQQVSytI0EXZsqEakbN-11" vertex="1">
          <mxGeometry x="102" width="103" height="23" as="geometry">
            <mxRectangle width="103" height="23" as="alternateBounds" />
          </mxGeometry>
        </mxCell>
        <mxCell id="elQQVSytI0EXZsqEakbN-14" value="" style="shape=tableRow;horizontal=0;startSize=0;swimlaneHead=0;swimlaneBody=0;strokeColor=inherit;top=0;left=0;bottom=0;right=0;collapsible=0;dropTarget=0;fillColor=none;points=[[0,0.5],[1,0.5]];portConstraint=eastwest;" parent="elQQVSytI0EXZsqEakbN-1" vertex="1">
          <mxGeometry y="83" width="204.72" height="24" as="geometry" />
        </mxCell>
        <mxCell id="elQQVSytI0EXZsqEakbN-15" value="acqua" style="shape=partialRectangle;html=1;whiteSpace=wrap;connectable=0;strokeColor=inherit;overflow=hidden;fillColor=none;top=0;left=0;bottom=0;right=0;pointerEvents=1;" parent="elQQVSytI0EXZsqEakbN-14" vertex="1">
          <mxGeometry width="102" height="24" as="geometry">
            <mxRectangle width="102" height="24" as="alternateBounds" />
          </mxGeometry>
        </mxCell>
        <mxCell id="elQQVSytI0EXZsqEakbN-16" value="105g" style="shape=partialRectangle;html=1;whiteSpace=wrap;connectable=0;strokeColor=inherit;overflow=hidden;fillColor=none;top=0;left=0;bottom=0;right=0;pointerEvents=1;" parent="elQQVSytI0EXZsqEakbN-14" vertex="1">
          <mxGeometry x="102" width="103" height="24" as="geometry">
            <mxRectangle width="103" height="24" as="alternateBounds" />
          </mxGeometry>
        </mxCell>
        <mxCell id="elQQVSytI0EXZsqEakbN-17" style="shape=tableRow;horizontal=0;startSize=0;swimlaneHead=0;swimlaneBody=0;strokeColor=inherit;top=0;left=0;bottom=0;right=0;collapsible=0;dropTarget=0;fillColor=none;points=[[0,0.5],[1,0.5]];portConstraint=eastwest;" parent="elQQVSytI0EXZsqEakbN-1" vertex="1">
          <mxGeometry y="107" width="204.72" height="20" as="geometry" />
        </mxCell>
        <mxCell id="elQQVSytI0EXZsqEakbN-18" value="tuorli" style="shape=partialRectangle;html=1;whiteSpace=wrap;connectable=0;strokeColor=inherit;overflow=hidden;fillColor=none;top=0;left=0;bottom=0;right=0;pointerEvents=1;" parent="elQQVSytI0EXZsqEakbN-17" vertex="1">
          <mxGeometry width="102" height="20" as="geometry">
            <mxRectangle width="102" height="20" as="alternateBounds" />
          </mxGeometry>
        </mxCell>
        <mxCell id="elQQVSytI0EXZsqEakbN-19" value="90g" style="shape=partialRectangle;html=1;whiteSpace=wrap;connectable=0;strokeColor=inherit;overflow=hidden;fillColor=none;top=0;left=0;bottom=0;right=0;pointerEvents=1;" parent="elQQVSytI0EXZsqEakbN-17" vertex="1">
          <mxGeometry x="102" width="103" height="20" as="geometry">
            <mxRectangle width="103" height="20" as="alternateBounds" />
          </mxGeometry>
        </mxCell>
        <mxCell id="elQQVSytI0EXZsqEakbN-20" value="dosi per panettone da 1Kg" style="text;html=1;align=center;verticalAlign=middle;resizable=0;points=[];autosize=1;strokeColor=none;fillColor=none;fontFamily=Helvetica;fontSize=12;fontColor=default;" parent="1" vertex="1">
          <mxGeometry x="539.368" y="366.141" width="161.417" height="27.558999999999997" as="geometry" />
        </mxCell>
        <mxCell id="elQQVSytI0EXZsqEakbN-21" value="" style="shape=table;startSize=0;container=1;collapsible=0;childLayout=tableLayout;" parent="1" vertex="1">
          <mxGeometry x="1314.96" y="314.96" width="224.41" height="260.81099999999947" as="geometry" />
        </mxCell>
        <mxCell id="elQQVSytI0EXZsqEakbN-22" value="" style="shape=tableRow;horizontal=0;startSize=0;swimlaneHead=0;swimlaneBody=0;strokeColor=inherit;top=0;left=0;bottom=0;right=0;collapsible=0;dropTarget=0;fillColor=none;points=[[0,0.5],[1,0.5]];portConstraint=eastwest;" parent="elQQVSytI0EXZsqEakbN-21" vertex="1">
          <mxGeometry width="224.41" height="24" as="geometry" />
        </mxCell>
        <mxCell id="elQQVSytI0EXZsqEakbN-23" value="farina W280/320" style="shape=partialRectangle;html=1;whiteSpace=wrap;connectable=0;strokeColor=inherit;overflow=hidden;fillColor=none;top=0;left=0;bottom=0;right=0;pointerEvents=1;" parent="elQQVSytI0EXZsqEakbN-22" vertex="1">
          <mxGeometry width="112" height="24" as="geometry">
            <mxRectangle width="112" height="24" as="alternateBounds" />
          </mxGeometry>
        </mxCell>
        <mxCell id="elQQVSytI0EXZsqEakbN-24" value="75g" style="shape=partialRectangle;html=1;whiteSpace=wrap;connectable=0;strokeColor=inherit;overflow=hidden;fillColor=none;top=0;left=0;bottom=0;right=0;pointerEvents=1;" parent="elQQVSytI0EXZsqEakbN-22" vertex="1">
          <mxGeometry x="112" width="112" height="24" as="geometry">
            <mxRectangle width="112" height="24" as="alternateBounds" />
          </mxGeometry>
        </mxCell>
        <mxCell id="elQQVSytI0EXZsqEakbN-25" value="" style="shape=tableRow;horizontal=0;startSize=0;swimlaneHead=0;swimlaneBody=0;strokeColor=inherit;top=0;left=0;bottom=0;right=0;collapsible=0;dropTarget=0;fillColor=none;points=[[0,0.5],[1,0.5]];portConstraint=eastwest;" parent="elQQVSytI0EXZsqEakbN-21" vertex="1">
          <mxGeometry y="24" width="224.41" height="23" as="geometry" />
        </mxCell>
        <mxCell id="elQQVSytI0EXZsqEakbN-26" value="tuorli" style="shape=partialRectangle;html=1;whiteSpace=wrap;connectable=0;strokeColor=inherit;overflow=hidden;fillColor=none;top=0;left=0;bottom=0;right=0;pointerEvents=1;" parent="elQQVSytI0EXZsqEakbN-25" vertex="1">
          <mxGeometry width="112" height="23" as="geometry">
            <mxRectangle width="112" height="23" as="alternateBounds" />
          </mxGeometry>
        </mxCell>
        <mxCell id="elQQVSytI0EXZsqEakbN-27" value="98g" style="shape=partialRectangle;html=1;whiteSpace=wrap;connectable=0;strokeColor=inherit;overflow=hidden;fillColor=none;top=0;left=0;bottom=0;right=0;pointerEvents=1;" parent="elQQVSytI0EXZsqEakbN-25" vertex="1">
          <mxGeometry x="112" width="112" height="23" as="geometry">
            <mxRectangle width="112" height="23" as="alternateBounds" />
          </mxGeometry>
        </mxCell>
        <mxCell id="elQQVSytI0EXZsqEakbN-28" value="" style="shape=tableRow;horizontal=0;startSize=0;swimlaneHead=0;swimlaneBody=0;strokeColor=inherit;top=0;left=0;bottom=0;right=0;collapsible=0;dropTarget=0;fillColor=none;points=[[0,0.5],[1,0.5]];portConstraint=eastwest;" parent="elQQVSytI0EXZsqEakbN-21" vertex="1">
          <mxGeometry y="47" width="224.41" height="24" as="geometry" />
        </mxCell>
        <mxCell id="elQQVSytI0EXZsqEakbN-29" value="zucchero" style="shape=partialRectangle;html=1;whiteSpace=wrap;connectable=0;strokeColor=inherit;overflow=hidden;fillColor=none;top=0;left=0;bottom=0;right=0;pointerEvents=1;" parent="elQQVSytI0EXZsqEakbN-28" vertex="1">
          <mxGeometry width="112" height="24" as="geometry">
            <mxRectangle width="112" height="24" as="alternateBounds" />
          </mxGeometry>
        </mxCell>
        <mxCell id="elQQVSytI0EXZsqEakbN-30" value="75g" style="shape=partialRectangle;html=1;whiteSpace=wrap;connectable=0;strokeColor=inherit;overflow=hidden;fillColor=none;top=0;left=0;bottom=0;right=0;pointerEvents=1;" parent="elQQVSytI0EXZsqEakbN-28" vertex="1">
          <mxGeometry x="112" width="112" height="24" as="geometry">
            <mxRectangle width="112" height="24" as="alternateBounds" />
          </mxGeometry>
        </mxCell>
        <mxCell id="elQQVSytI0EXZsqEakbN-31" value="" style="shape=tableRow;horizontal=0;startSize=0;swimlaneHead=0;swimlaneBody=0;strokeColor=inherit;top=0;left=0;bottom=0;right=0;collapsible=0;dropTarget=0;fillColor=none;points=[[0,0.5],[1,0.5]];portConstraint=eastwest;" parent="elQQVSytI0EXZsqEakbN-21" vertex="1">
          <mxGeometry y="71" width="224.41" height="24" as="geometry" />
        </mxCell>
        <mxCell id="elQQVSytI0EXZsqEakbN-32" value="miele" style="shape=partialRectangle;html=1;whiteSpace=wrap;connectable=0;strokeColor=inherit;overflow=hidden;fillColor=none;top=0;left=0;bottom=0;right=0;pointerEvents=1;" parent="elQQVSytI0EXZsqEakbN-31" vertex="1">
          <mxGeometry width="112" height="24" as="geometry">
            <mxRectangle width="112" height="24" as="alternateBounds" />
          </mxGeometry>
        </mxCell>
        <mxCell id="elQQVSytI0EXZsqEakbN-33" value="18g" style="shape=partialRectangle;html=1;whiteSpace=wrap;connectable=0;strokeColor=inherit;overflow=hidden;fillColor=none;top=0;left=0;bottom=0;right=0;pointerEvents=1;" parent="elQQVSytI0EXZsqEakbN-31" vertex="1">
          <mxGeometry x="112" width="112" height="24" as="geometry">
            <mxRectangle width="112" height="24" as="alternateBounds" />
          </mxGeometry>
        </mxCell>
        <mxCell id="elQQVSytI0EXZsqEakbN-34" value="" style="shape=tableRow;horizontal=0;startSize=0;swimlaneHead=0;swimlaneBody=0;strokeColor=inherit;top=0;left=0;bottom=0;right=0;collapsible=0;dropTarget=0;fillColor=none;points=[[0,0.5],[1,0.5]];portConstraint=eastwest;" parent="elQQVSytI0EXZsqEakbN-21" vertex="1">
          <mxGeometry y="95" width="224.41" height="23" as="geometry" />
        </mxCell>
        <mxCell id="elQQVSytI0EXZsqEakbN-35" value="burro" style="shape=partialRectangle;html=1;whiteSpace=wrap;connectable=0;strokeColor=inherit;overflow=hidden;fillColor=none;top=0;left=0;bottom=0;right=0;pointerEvents=1;" parent="elQQVSytI0EXZsqEakbN-34" vertex="1">
          <mxGeometry width="112" height="23" as="geometry">
            <mxRectangle width="112" height="23" as="alternateBounds" />
          </mxGeometry>
        </mxCell>
        <mxCell id="elQQVSytI0EXZsqEakbN-36" value="112g" style="shape=partialRectangle;html=1;whiteSpace=wrap;connectable=0;strokeColor=inherit;overflow=hidden;fillColor=none;top=0;left=0;bottom=0;right=0;pointerEvents=1;" parent="elQQVSytI0EXZsqEakbN-34" vertex="1">
          <mxGeometry x="112" width="112" height="23" as="geometry">
            <mxRectangle width="112" height="23" as="alternateBounds" />
          </mxGeometry>
        </mxCell>
        <mxCell id="elQQVSytI0EXZsqEakbN-37" style="shape=tableRow;horizontal=0;startSize=0;swimlaneHead=0;swimlaneBody=0;strokeColor=inherit;top=0;left=0;bottom=0;right=0;collapsible=0;dropTarget=0;fillColor=none;points=[[0,0.5],[1,0.5]];portConstraint=eastwest;" parent="elQQVSytI0EXZsqEakbN-21" vertex="1">
          <mxGeometry y="118" width="224.41" height="24" as="geometry" />
        </mxCell>
        <mxCell id="elQQVSytI0EXZsqEakbN-38" value="acqua" style="shape=partialRectangle;html=1;whiteSpace=wrap;connectable=0;strokeColor=inherit;overflow=hidden;fillColor=none;top=0;left=0;bottom=0;right=0;pointerEvents=1;" parent="elQQVSytI0EXZsqEakbN-37" vertex="1">
          <mxGeometry width="112" height="24" as="geometry">
            <mxRectangle width="112" height="24" as="alternateBounds" />
          </mxGeometry>
        </mxCell>
        <mxCell id="elQQVSytI0EXZsqEakbN-39" value="zero" style="shape=partialRectangle;html=1;whiteSpace=wrap;connectable=0;strokeColor=inherit;overflow=hidden;fillColor=none;top=0;left=0;bottom=0;right=0;pointerEvents=1;" parent="elQQVSytI0EXZsqEakbN-37" vertex="1">
          <mxGeometry x="112" width="112" height="24" as="geometry">
            <mxRectangle width="112" height="24" as="alternateBounds" />
          </mxGeometry>
        </mxCell>
        <mxCell id="elQQVSytI0EXZsqEakbN-40" style="shape=tableRow;horizontal=0;startSize=0;swimlaneHead=0;swimlaneBody=0;strokeColor=inherit;top=0;left=0;bottom=0;right=0;collapsible=0;dropTarget=0;fillColor=none;points=[[0,0.5],[1,0.5]];portConstraint=eastwest;" parent="elQQVSytI0EXZsqEakbN-21" vertex="1">
          <mxGeometry y="142" width="224.41" height="23" as="geometry" />
        </mxCell>
        <mxCell id="elQQVSytI0EXZsqEakbN-41" value="uvetta" style="shape=partialRectangle;html=1;whiteSpace=wrap;connectable=0;strokeColor=inherit;overflow=hidden;fillColor=none;top=0;left=0;bottom=0;right=0;pointerEvents=1;" parent="elQQVSytI0EXZsqEakbN-40" vertex="1">
          <mxGeometry width="112" height="23" as="geometry">
            <mxRectangle width="112" height="23" as="alternateBounds" />
          </mxGeometry>
        </mxCell>
        <mxCell id="elQQVSytI0EXZsqEakbN-42" value="150g" style="shape=partialRectangle;html=1;whiteSpace=wrap;connectable=0;strokeColor=inherit;overflow=hidden;fillColor=none;top=0;left=0;bottom=0;right=0;pointerEvents=1;" parent="elQQVSytI0EXZsqEakbN-40" vertex="1">
          <mxGeometry x="112" width="112" height="23" as="geometry">
            <mxRectangle width="112" height="23" as="alternateBounds" />
          </mxGeometry>
        </mxCell>
        <mxCell id="elQQVSytI0EXZsqEakbN-43" style="shape=tableRow;horizontal=0;startSize=0;swimlaneHead=0;swimlaneBody=0;strokeColor=inherit;top=0;left=0;bottom=0;right=0;collapsible=0;dropTarget=0;fillColor=none;points=[[0,0.5],[1,0.5]];portConstraint=eastwest;" parent="elQQVSytI0EXZsqEakbN-21" vertex="1">
          <mxGeometry y="165" width="224.41" height="24" as="geometry" />
        </mxCell>
        <mxCell id="elQQVSytI0EXZsqEakbN-44" value="arancia candita" style="shape=partialRectangle;html=1;whiteSpace=wrap;connectable=0;strokeColor=inherit;overflow=hidden;fillColor=none;top=0;left=0;bottom=0;right=0;pointerEvents=1;" parent="elQQVSytI0EXZsqEakbN-43" vertex="1">
          <mxGeometry width="112" height="24" as="geometry">
            <mxRectangle width="112" height="24" as="alternateBounds" />
          </mxGeometry>
        </mxCell>
        <mxCell id="elQQVSytI0EXZsqEakbN-45" value="112g" style="shape=partialRectangle;html=1;whiteSpace=wrap;connectable=0;strokeColor=inherit;overflow=hidden;fillColor=none;top=0;left=0;bottom=0;right=0;pointerEvents=1;" parent="elQQVSytI0EXZsqEakbN-43" vertex="1">
          <mxGeometry x="112" width="112" height="24" as="geometry">
            <mxRectangle width="112" height="24" as="alternateBounds" />
          </mxGeometry>
        </mxCell>
        <mxCell id="elQQVSytI0EXZsqEakbN-46" style="shape=tableRow;horizontal=0;startSize=0;swimlaneHead=0;swimlaneBody=0;strokeColor=inherit;top=0;left=0;bottom=0;right=0;collapsible=0;dropTarget=0;fillColor=none;points=[[0,0.5],[1,0.5]];portConstraint=eastwest;" parent="elQQVSytI0EXZsqEakbN-21" vertex="1">
          <mxGeometry y="189" width="224.41" height="24" as="geometry" />
        </mxCell>
        <mxCell id="elQQVSytI0EXZsqEakbN-47" value="cedro candito" style="shape=partialRectangle;html=1;whiteSpace=wrap;connectable=0;strokeColor=inherit;overflow=hidden;fillColor=none;top=0;left=0;bottom=0;right=0;pointerEvents=1;" parent="elQQVSytI0EXZsqEakbN-46" vertex="1">
          <mxGeometry width="112" height="24" as="geometry">
            <mxRectangle width="112" height="24" as="alternateBounds" />
          </mxGeometry>
        </mxCell>
        <mxCell id="elQQVSytI0EXZsqEakbN-48" value="37g" style="shape=partialRectangle;html=1;whiteSpace=wrap;connectable=0;strokeColor=inherit;overflow=hidden;fillColor=none;top=0;left=0;bottom=0;right=0;pointerEvents=1;" parent="elQQVSytI0EXZsqEakbN-46" vertex="1">
          <mxGeometry x="112" width="112" height="24" as="geometry">
            <mxRectangle width="112" height="24" as="alternateBounds" />
          </mxGeometry>
        </mxCell>
        <mxCell id="elQQVSytI0EXZsqEakbN-50" style="shape=tableRow;horizontal=0;startSize=0;swimlaneHead=0;swimlaneBody=0;strokeColor=inherit;top=0;left=0;bottom=0;right=0;collapsible=0;dropTarget=0;fillColor=none;points=[[0,0.5],[1,0.5]];portConstraint=eastwest;" parent="elQQVSytI0EXZsqEakbN-21" vertex="1">
          <mxGeometry y="213" width="224.41" height="24" as="geometry" />
        </mxCell>
        <mxCell id="elQQVSytI0EXZsqEakbN-51" value="vaniglia" style="shape=partialRectangle;html=1;whiteSpace=wrap;connectable=0;strokeColor=inherit;overflow=hidden;fillColor=none;top=0;left=0;bottom=0;right=0;pointerEvents=1;" parent="elQQVSytI0EXZsqEakbN-50" vertex="1">
          <mxGeometry width="112" height="24" as="geometry">
            <mxRectangle width="112" height="24" as="alternateBounds" />
          </mxGeometry>
        </mxCell>
        <mxCell id="elQQVSytI0EXZsqEakbN-52" value="bacca o estratto" style="shape=partialRectangle;html=1;whiteSpace=wrap;connectable=0;strokeColor=inherit;overflow=hidden;fillColor=none;top=0;left=0;bottom=0;right=0;pointerEvents=1;" parent="elQQVSytI0EXZsqEakbN-50" vertex="1">
          <mxGeometry x="112" width="112" height="24" as="geometry">
            <mxRectangle width="112" height="24" as="alternateBounds" />
          </mxGeometry>
        </mxCell>
        <mxCell id="elQQVSytI0EXZsqEakbN-53" style="shape=tableRow;horizontal=0;startSize=0;swimlaneHead=0;swimlaneBody=0;strokeColor=inherit;top=0;left=0;bottom=0;right=0;collapsible=0;dropTarget=0;fillColor=none;points=[[0,0.5],[1,0.5]];portConstraint=eastwest;" parent="elQQVSytI0EXZsqEakbN-21" vertex="1">
          <mxGeometry y="237" width="224.41" height="24" as="geometry" />
        </mxCell>
        <mxCell id="elQQVSytI0EXZsqEakbN-54" value="scorza arancia" style="shape=partialRectangle;html=1;whiteSpace=wrap;connectable=0;strokeColor=inherit;overflow=hidden;fillColor=none;top=0;left=0;bottom=0;right=0;pointerEvents=1;" parent="elQQVSytI0EXZsqEakbN-53" vertex="1">
          <mxGeometry width="112" height="24" as="geometry">
            <mxRectangle width="112" height="24" as="alternateBounds" />
          </mxGeometry>
        </mxCell>
        <mxCell id="elQQVSytI0EXZsqEakbN-55" value="1 arancia" style="shape=partialRectangle;html=1;whiteSpace=wrap;connectable=0;strokeColor=inherit;overflow=hidden;fillColor=none;top=0;left=0;bottom=0;right=0;pointerEvents=1;" parent="elQQVSytI0EXZsqEakbN-53" vertex="1">
          <mxGeometry x="112" width="112" height="24" as="geometry">
            <mxRectangle width="112" height="24" as="alternateBounds" />
          </mxGeometry>
        </mxCell>
        <mxCell id="elQQVSytI0EXZsqEakbN-49" value="dosi per panettone da 1Kg" style="text;html=1;align=center;verticalAlign=middle;resizable=0;points=[];autosize=1;strokeColor=none;fillColor=none;fontFamily=Helvetica;fontSize=12;fontColor=default;" parent="1" vertex="1">
          <mxGeometry x="1344.9250000000002" y="279.348" width="161.417" height="27.558999999999997" as="geometry" />
        </mxCell>
        <mxCell id="elQQVSytI0EXZsqEakbN-56" value="COTTURA - forno statico - 170C - 52min - valvola CHIUSA" style="text;html=1;align=center;verticalAlign=middle;resizable=0;points=[];autosize=1;strokeColor=none;fillColor=none;fontFamily=Helvetica;fontSize=12;fontColor=default;fontStyle=1" parent="1" vertex="1">
          <mxGeometry x="1192.9120000000003" y="1086.615" width="334.645" height="27.558999999999997" as="geometry" />
        </mxCell>
        <mxCell id="w19tXpd-vcuF43QdjS_J-1" value="forno" style="shape=image;verticalLabelPosition=bottom;labelBackgroundColor=default;verticalAlign=top;aspect=fixed;imageAspect=0;image=data:image/svg+xml,PHN2ZyB4bWxucz0iaHR0cDovL3d3dy53My5vcmcvMjAwMC9zdmciIHZpZXdCb3g9Ii01LjAgLTEwLjAgMTEwLjAgMTM1LjAiIHZlcnNpb249IjEuMSI+JiN4YTsgPHBhdGggZD0ibTkxLjkyMiAxMi41aC04My44NDRjLTIuNjI4OSAwLTQuNzYxNyAyLjE0MDYtNC43NjE3IDQuNzYxN3Y2MS40MjJjMCAyLjYyODkgMi4xNDA2IDQuNzYxNyA0Ljc2MTcgNC43NjE3aDAuODcxMDl2MS43NjE3YzAgMS4yNjE3IDEuMDMxMiAyLjI4OTEgMi4yODkxIDIuMjg5MWg2LjQyOTdjMS4yNjE3IDAgMi4yODkxLTEuMDMxMiAyLjI4OTEtMi4yODkxdi0xLjc2MTdoNjAuMTA5djEuNzYxN2MwIDEuMjYxNyAxLjAzMTIgMi4yODkxIDIuMjg5MSAyLjI4OTFoNi40Mjk3YzEuMjYxNyAwIDIuMjg5MS0xLjAzMTIgMi4yODkxLTIuMjg5MXYtMS43NjE3aDAuODcxMDljMi42Mjg5IDAgNC43NjE3LTIuMTQwNiA0Ljc2MTctNC43NjE3bDAuMDAzOTA3LTYxLjQxNGMtMC4wMTk1MzItMi42Mjg5LTIuMTYwMi00Ljc2OTUtNC43ODkxLTQuNzY5NXptLTgzLjg0NCAxLjkxMDJoODMuODUyYzEuNTc4MSAwIDIuODU5NCAxLjI4MTIgMi44NTk0IDIuODU5NHYxMC40OGgtODkuNTd2LTEwLjQ4YzAtMS41NzgxIDEuMjgxMi0yLjg1OTQgMi44NTk0LTIuODU5NHptOS45NjA5IDcwLjgwMWMwIDAuMjEwOTQtMC4xNzE4NyAwLjM3ODkxLTAuMzc4OTEgMC4zNzg5MWgtNi40Mjk3Yy0wLjIxMDk0IDAtMC4zNzg5MS0wLjE3MTg4LTAuMzc4OTEtMC4zNzg5MXYtMS43NjE3aDcuMTkxNHptNzEuMTA5IDBjMCAwLjIxMDk0LTAuMTcxODggMC4zNzg5MS0wLjM3ODkxIDAuMzc4OTFoLTYuNDI5N2MtMC4yMTA5NCAwLTAuMzc4OTEtMC4xNzE4OC0wLjM3ODkxLTAuMzc4OTF2LTEuNzYxN2g3LjE5MTR6bTIuNzczNC0zLjY2MDJoLTgzLjg0NGMtMS41NzgxIDAtMi44NTk0LTEuMjgxMi0yLjg1OTQtMi44NTk0di00OS4wNDNoODkuNTU5djQ5LjAzOWMwLjAwMzkwNiAxLjU4Mi0xLjI3NzMgMi44NjMzLTIuODU1NSAyLjg2MzN6bS01Ny4yNjItNDMuODc5aDMwLjY3MmMxLjYwOTQgMCAyLjkyMTktMS4zMDg2IDIuOTIxOS0yLjkyMTkgMC0xLjYwOTQtMS4zMDg2LTIuOTIxOS0yLjkyMTktMi45MjE5aC0zMC42NzJjLTEuNjA5NCAwLTIuOTIxOSAxLjMwODYtMi45MjE5IDIuOTIxOSAwLjAxMTcxOSAxLjYwOTQgMS4zMTI1IDIuOTIxOSAyLjkyMTkgMi45MjE5em0wLTMuOTQxNGgzMC42NzJjMC41NTg1OSAwIDEuMDExNyAwLjQ0OTIyIDEuMDExNyAxLjAxMTcgMCAwLjU1ODU5LTAuNDQ5MjIgMS4wMTE3LTEuMDExNyAxLjAxMTdsLTMwLjY3Mi0wLjAwMzkwNmMtMC41NTg1OSAwLTEuMDExNy0wLjQ0OTIyLTEuMDExNy0xLjAxMTcgMC0wLjU0Njg4IDAuNDYwOTQtMS4wMDc4IDEuMDExNy0xLjAwNzh6bTI0Ljg3MS04Ljg1MTZjMi4xMDE2IDAgMy44MDA4LTEuNjk5MiAzLjgwMDgtMy44MDA4cy0xLjY5OTItMy44MDA4LTMuODAwOC0zLjgwMDgtMy44MDA4IDEuNjk5Mi0zLjgwMDggMy44MDA4YzAgMi4wOTM4IDEuNjk5MiAzLjgwMDggMy44MDA4IDMuODAwOHptMC01LjY5OTJjMS4wMzkxIDAgMS44OTA2IDAuODUxNTYgMS44OTA2IDEuODkwNiAwIDEuMDM5MS0wLjg1MTU2IDEuODkwNi0xLjg5MDYgMS44OTA2cy0xLjg5MDYtMC44NTE1Ni0xLjg5MDYtMS44OTA2Yy0wLjAxMTcxOS0xLjAzOTEgMC44Mzk4NC0xLjg5MDYgMS44OTA2LTEuODkwNnptMTAuOTU3IDUuNjk5MmMyLjEwMTYgMCAzLjgwMDgtMS42OTkyIDMuODAwOC0zLjgwMDhzLTEuNjk5Mi0zLjgwMDgtMy44MDA4LTMuODAwOGMtMi4xMDE2IDAtMy44MDA4IDEuNjk5Mi0zLjgwMDggMy44MDA4IDAuMDAzOTA2IDIuMDkzOCAxLjcwMzEgMy44MDA4IDMuODAwOCAzLjgwMDh6bTAtNS42OTkyYzEuMDM5MSAwIDEuODkwNiAwLjg1MTU2IDEuODkwNiAxLjg5MDYgMCAxLjAzOTEtMC44NTE1NiAxLjg5MDYtMS44OTA2IDEuODkwNi0xLjAzOTEgMC0xLjg5MDYtMC44NTE1Ni0xLjg5MDYtMS44OTA2LTAuMDA3ODEyLTEuMDM5MSAwLjg0Mzc1LTEuODkwNiAxLjg5MDYtMS44OTA2em0xMC45NjEgNS42OTkyYzIuMTAxNiAwIDMuODAwOC0xLjY5OTIgMy44MDA4LTMuODAwOHMtMS42OTkyLTMuODAwOC0zLjgwMDgtMy44MDA4Yy0yLjEwMTYgMC0zLjgwMDggMS42OTkyLTMuODAwOCAzLjgwMDggMCAyLjA5MzggMS43MDMxIDMuODAwOCAzLjgwMDggMy44MDA4em0wLTUuNjk5MmMxLjAzOTEgMCAxLjg5MDYgMC44NTE1NiAxLjg5MDYgMS44OTA2IDAgMS4wMzkxLTAuODUxNTYgMS44OTA2LTEuODkwNiAxLjg5MDYtMS4wMzkxIDAtMS44OTA2LTAuODUxNTYtMS44OTA2LTEuODkwNiAwLTEuMDM5MSAwLjg1MTU2LTEuODkwNiAxLjg5MDYtMS44OTA2em0tNjQuMzAxIDYuMDgyaDExLjQyMmMxLjMyMDMgMCAyLjM5ODQtMS4wNzgxIDIuMzk4NC0yLjM5ODR2LTMuNTYyNWMwLTEuMzIwMy0xLjA3ODEtMi4zOTg0LTIuMzk4NC0yLjM5ODRsLTExLjQyMi0wLjAwMzkwNmMtMS4zMjAzIDAtMi4zOTg0IDEuMDc4MS0yLjM5ODQgMi4zOTg0djMuNTU4NmMwIDEuMzI0MiAxLjA3ODEgMi40MDYyIDIuMzk4NCAyLjQwNjJ6bS0wLjQ4ODI4LTUuOTYwOWMwLTAuMjY5NTMgMC4yMTg3NS0wLjUgMC41LTAuNWgxMS40MjJjMC4yNjk1MyAwIDAuNSAwLjIxODc1IDAuNSAwLjV2My41NTg2YzAgMC4yNjk1My0wLjIxODc1IDAuNS0wLjUgMC41aC0xMS40MzRjLTAuMjY5NTMgMC0wLjUtMC4yMTg3NS0wLjUtMC41di0zLjU1ODZ6bTQ0LjQ4OCAzMi42MjljMS4zNzg5IDIuMDExNyAxLjM3ODkgNC40MTAyIDAgNi40MTAyLTAuMTc5NjkgMC4yNjk1My0wLjQ4MDQ3IDAuNDEwMTYtMC43ODkwNiAwLjQxMDE2LTAuMTkxNDEgMC0wLjM3MTA5LTAuMDUwNzgxLTAuNTM5MDYtMC4xNzE4OC0wLjQyOTY5LTAuMzAwNzgtMC41MzkwNi0wLjg5MDYyLTAuMjM4MjgtMS4zMjAzIDAuOTQxNDEtMS4zNzExIDAuOTQxNDEtMi44Nzg5IDAtNC4yNS0xLjQyOTctMi4wNzgxLTEuNDQ5Mi00LjQ0MTQtMC4wMzkwNjItNi40ODA1IDAuMzAwNzgtMC40Mjk2OSAwLjg5MDYyLTAuNTM5MDYgMS4zMjgxLTAuMjM4MjggMC40Mjk2OSAwLjMwMDc4IDAuNTM5MDYgMC44OTA2MyAwLjIzODI4IDEuMzI4MS0wLjk2MDk0IDEuMzk0NS0wLjk0OTIyIDIuODgyOCAwLjAzOTA2MyA0LjMxMjV6bS0xMC4zNCAwYzEuMzc4OSAyLjAxMTcgMS4zNzg5IDQuNDEwMiAwIDYuNDEwMi0wLjE3OTY5IDAuMjY5NTMtMC40ODA0NyAwLjQxMDE2LTAuNzg5MDYgMC40MTAxNi0wLjE5MTQxIDAtMC4zNzEwOS0wLjA1MDc4MS0wLjUzOTA2LTAuMTcxODgtMC40Mjk2OS0wLjMwMDc4LTAuNTM5MDYtMC44OTA2Mi0wLjIzODI4LTEuMzIwMyAwLjk0MTQxLTEuMzcxMSAwLjk0MTQxLTIuODc4OSAwLTQuMjUtMS40Mjk3LTIuMDc4MS0xLjQ0OTItNC40NDE0LTAuMDM5MDYzLTYuNDgwNSAwLjMwMDc4LTAuNDI5NjkgMC44OTA2Mi0wLjUzOTA2IDEuMzI4MS0wLjIzODI4IDAuNDI5NjkgMC4zMDA3OCAwLjUzOTA2IDAuODkwNjMgMC4yMzgyOCAxLjMyODEtMC45NjA5NCAxLjM5NDUtMC45NDkyMiAyLjg4MjggMC4wMzkwNjMgNC4zMTI1em0tMTAuMzQgMGMxLjM3ODkgMi4wMTE3IDEuMzc4OSA0LjQxMDIgMCA2LjQxMDItMC4xNzk2OSAwLjI2OTUzLTAuNDgwNDcgMC40MTAxNi0wLjc4OTA2IDAuNDEwMTYtMC4xOTE0MSAwLTAuMzcxMDktMC4wNTA3ODEtMC41MzkwNi0wLjE3MTg4LTAuNDI5NjktMC4zMDA3OC0wLjUzOTA2LTAuODkwNjItMC4yMzgyOC0xLjMyMDMgMC45NDE0MS0xLjM3MTEgMC45NDE0MS0yLjg3ODkgMC00LjI1LTEuNDI5Ny0yLjA3ODEtMS40NDkyLTQuNDQxNC0wLjAzOTA2My02LjQ4MDUgMC4zMDA3OC0wLjQyOTY5IDAuODkwNjItMC41MzkwNiAxLjMyODEtMC4yMzgyOCAwLjQyOTY5IDAuMzAwNzggMC41MzkwNiAwLjg5MDYzIDAuMjM4MjggMS4zMjgxLTAuOTYwOTQgMS4zOTQ1LTAuOTQ5MjIgMi44ODI4IDAuMDM5MDYyIDQuMzEyNXptNDEuOTIyLTEyLjA5aC02NC43ODFjLTEuNTc4MSAwLTIuODU5NCAxLjI4MTItMi44NTk0IDIuODU5NHYzMy44OTFjMCAxLjU3ODEgMS4yODEyIDIuODU5NCAyLjg1OTQgMi44NTk0aDY0Ljc4MWMxLjU3ODEgMCAyLjg1OTQtMS4yODEyIDIuODU5NC0yLjg1OTR2LTMzLjg5MWMwLTEuNTcwMy0xLjI4MTItMi44NTk0LTIuODU5NC0yLjg1OTR6bS01Ny4xOCAzNi44NzljMC0wLjQ0OTIyIDAuMzcxMDktMC44MjAzMSAwLjgyMDMxLTAuODIwMzFoNDcuOTQ5YzAuNDQ5MjIgMCAwLjgyMDMxIDAuMzcxMDkgMC44MjAzMSAwLjgyMDMxIDAgMC40NDE0MS0wLjM1OTM4IDAuODA4NTktMC44MDA3OCAwLjgyMDMxaC00OGMtMC40NDE0MS0wLjAwNzgxMi0wLjc4OTA2LTAuMzc4OTEtMC43ODkwNi0wLjgyMDMxem0xNi40MTgtMTEuNjI5YzAuMjgxMjUtMC4wMzEyNSAwLjU3MDMxLTAuMDUwNzgyIDAuODU5MzgtMC4wNTA3ODJoMC43MTg3NXYzLjM1OTRjMCAwLjQyOTY5LTAuMzUxNTYgMC43ODkwNi0wLjc4OTA2IDAuNzg5MDYtMC40NDE0MSAwLTAuNzg5MDYtMC4zNTE1Ni0wLjc4OTA2LTAuNzg5MDZ6bTAuNzgxMjUgNi4wMTE3YzEuNDgwNSAwIDIuNjkxNC0xLjIxMDkgMi42OTE0LTIuNjkxNHYtMy4zNTk0aDIuMTk5MnYzLjM1OTRjMCAxLjQ4MDUgMS4yMTA5IDIuNjkxNCAyLjY5MTQgMi42OTE0IDEuNDgwNSAwIDIuNjkxNC0xLjIxMDkgMi42OTE0LTIuNjkxNHYtMy4zNTk0aDIuMTk5MnYzLjM1OTRjMCAxLjQ4MDUgMS4yMTA5IDIuNjkxNCAyLjY5MTQgMi42OTE0czIuNjkxNC0xLjIxMDkgMi42OTE0LTIuNjkxNHYtMi44Nzg5YzMuMTcxOSAxLjE0MDYgNS40NDE0IDQuMTYwMiA1LjQ0MTQgNy43MTA5bC0wLjAwNzgxMiAwLjc1NzgxaC0zMS40MTh2LTAuNzYxNzJjMC0zLjU1MDggMi4yNjk1LTYuNTc4MSA1LjQ0MTQtNy43MTA5djIuODc4OWMtMC4wMDM5MDYgMS40ODQ0IDEuMjA3IDIuNjk1MyAyLjY4NzUgMi42OTUzem02LjgwMDgtNi4wNjI1aDEuNTcwM3YzLjM1OTRjMCAwLjQyOTY5LTAuMzUxNTYgMC43ODkwNi0wLjc4OTA2IDAuNzg5MDYtMC40Mjk2OSAwLTAuNzg5MDYtMC4zNTE1Ni0wLjc4OTA2LTAuNzg5MDZsLTAuMDAzOTA2LTMuMzU5NHptNy41ODk4IDBoMC43MTg3NWMwLjI4OTA2IDAgMC41NzAzMSAwLjAxOTUzMiAwLjg1OTM4IDAuMDUwNzgydjMuMzIwM2MwIDAuNDI5NjktMC4zNTE1NiAwLjc4OTA2LTAuNzg5MDYgMC43ODkwNi0wLjQ0MTQxIDAtMC43ODkwNi0wLjM1MTU2LTAuNzg5MDYtMC43ODkwNnptMjYuNTM5IDExLjU1MWMwIDAuNTMxMjUtMC40Mjk2OSAwLjk0OTIyLTAuOTQ5MjIgMC45NDkyMmgtNS44MjgxYzAuMDc4MTI1LTAuMjYxNzIgMC4xNDA2Mi0wLjUzMTI1IDAuMTQwNjItMC44MjAzMSAwLTEuNS0xLjIxODgtMi43MTg4LTIuNzE4OC0yLjcxODhoLTYuMzUxNnYtMC43NjE3MmMwLTUuNTcwMy00LjUzMTItMTAuMTA5LTEwLjEwOS0xMC4xMDloLTE1LjA0M2MtNS41NzAzIDAtMTAuMTA5IDQuNTMxMi0xMC4xMDkgMTAuMTA5djAuNzYxNzJoLTYuMzUxNmMtMS41IDAtMi43MTg4IDEuMjE4OC0yLjcxODggMi43MTg4IDAgMC4yODkwNiAwLjA1ODU5NCAwLjU1ODU5IDAuMTQwNjIgMC44MjAzMWgtNS44MjgxYy0wLjUzMTI1IDAtMC45NDkyMi0wLjQyOTY5LTAuOTQ5MjItMC45NDkyMmwtMC4wMDM5MDYtMzMuODkxYzAtMC41MzEyNSAwLjQyOTY5LTAuOTQ5MjIgMC45NDkyMi0wLjk0OTIyaDY0Ljc4MWMwLjUzMTI1IDAgMC45NDkyMiAwLjQyOTY5IDAuOTQ5MjIgMC45NDkyMnoiLz4mI3hhOzx0ZXh0IGZpbGw9IiMwMDAwMDAiIGZvbnQtZmFtaWx5PSJBcmJlaXQgUmVndWxhciwgSGVsdmV0aWNhLCBBcmlhbC1Vbmljb2RlLCBBcmlhbCwgU2Fucy1zZXJpZiIgZm9udC13ZWlnaHQ9ImJvbGQiIGZvbnQtc2l6ZT0iNS4wIiB5PSIxMTcuNSIgeD0iMC4wIj5DcmVhdGVkIGJ5IEhhbmJhaTwvdGV4dD48dGV4dCBmaWxsPSIjMDAwMDAwIiBmb250LWZhbWlseT0iQXJiZWl0IFJlZ3VsYXIsIEhlbHZldGljYSwgQXJpYWwtVW5pY29kZSwgQXJpYWwsIFNhbnMtc2VyaWYiIGZvbnQtd2VpZ2h0PSJib2xkIiBmb250LXNpemU9IjUuMCIgeT0iMTIyLjUiIHg9IjAuMCI+ZnJvbSBOb3VuIFByb2plY3Q8L3RleHQ+PC9zdmc+;clipPath=inset(13.67% 4.1% 25% 3.28%);" vertex="1" parent="1">
          <mxGeometry x="1098.4199999999998" y="1066.8500000000001" width="82.4" height="67.09" as="geometry" />
        </mxCell>
      </root>
    </mxGraphModel>
  </diagram>
</mxfile>
